<svg xmlns="http://www.w3.org/2000/svg" viewBox="0 0 2086.06 747.83"><defs><style>.cls-1{fill:#fff;}.cls-2,.cls-3,.cls-4,.cls-5{fill:none;}.cls-2,.cls-4,.cls-5{stroke:#fff;}.cls-2,.cls-4,.cls-5,.cls-6{stroke-miterlimit:10;}.cls-4{stroke-width:17px;}.cls-5{stroke-width:7px;}.cls-6{fill:#f90808;stroke:#c12c27;stroke-width:13px;}</style></defs><title>theLogo3</title><g id="Layer_2" data-name="Layer 2"><g id="Layer_11" data-name="Layer 11"><path class="cls-1" d="M374.7,349.26a11.93,11.93,0,0,1-1.44-.09c-2-.24-4.83-2.56-6.67-4.47-1.09-1.13-2.17-3.08-1.91-9a36.28,36.28,0,0,0-1.17-9.75,14.6,14.6,0,0,1-.53-3.22c.13-2,1.25-4.33,2.31-4.83a3.75,3.75,0,0,1,1.62-.3c.35,0,.67,0,.94,0l.54,0,.27,0c.24,0,2.06-.1,3.6-.1a11.55,11.55,0,0,1,1.5,0,.74.74,0,0,0,.31.05,2.49,2.49,0,0,0,1-.28l.16-.08.07-.16a1.73,1.73,0,0,1,.21-.32l.66-.51a47.54,47.54,0,0,0,5.48-4.71c2.79-2.93,7.54-10,10.12-14,2.74-4.22,7.47-6.84,11.64-9.16.87-.48,1.71-.95,2.48-1.4,3.81-2.24,5.71-6,8.34-11.19.53-1,1.09-2.15,1.69-3.3a27.62,27.62,0,0,1,6.8-8.49,19.22,19.22,0,0,0,2.48-2.5c1.19-1.55,1.7-4.64,2.25-7.92a30.26,30.26,0,0,1,1.52-6.47c1.51-3.34,8.86-9,9.35-9.32a4.11,4.11,0,0,1,.94-.33l.1,0,.08-.06a10.36,10.36,0,0,0,3-4c.48-1.19,1.22-4,2.16-7.59s2.11-8.09,3.39-12.28a147.22,147.22,0,0,1,5.79-15.5l.54-1.19-1.18.52h-.28a13.72,13.72,0,0,1-2-.21,16.2,16.2,0,0,1-3.41-.88l-.12-.05h-.13c-.19,0-.49.15-1.07.94-.46.63-7.87,6.83-10,8.44-1.9,1.46-3.43,3.05-5.62,6.9a19.59,19.59,0,0,1-2.92,4,3.88,3.88,0,0,0-1.12,1.66,8.88,8.88,0,0,0,0,2.3,15.63,15.63,0,0,1,0,2.48,9.27,9.27,0,0,1-.9,2.57,7.1,7.1,0,0,0-.89,2.91,2.75,2.75,0,0,0,1,2.05l.14.14a1.33,1.33,0,0,1-.55.11,1.8,1.8,0,0,1-.45-.06,2.31,2.31,0,0,1-1.17-1.16V229h-.51c-.17,0-.46,0-2.4,2.11-.4.43-.9,1-1.42,1.7a16.46,16.46,0,0,1-2.54,2.78c-.07,0-.13-.09-.08-.27l.58-2.31-1.46,1.87s-.41.53-.67.85a.78.78,0,0,1-.46.13.39.39,0,0,1-.31-.11.88.88,0,0,1,0-.71l.2-.52-.54-.15c-.07,0-.27-.13-.26-.49a13.59,13.59,0,0,1,.44-2.35l.1-.39-.36-.19s-.28-.16-.26-.37a14.08,14.08,0,0,1,.78-2.61,5.68,5.68,0,0,1,.5-1.06,2.87,2.87,0,0,0,.29-.62,10.88,10.88,0,0,1,.58-1.12,8.3,8.3,0,0,0,.87-1.79,3.16,3.16,0,0,1,.18-.55,6.07,6.07,0,0,0,.41-1.44,4.49,4.49,0,0,1,.61-1.5c.23-.44.52-1,.86-1.75a12,12,0,0,1,2.94-3.27,6.28,6.28,0,0,0,1.18-1.17c.22-.38,1.38-2.94,3.27-7.1,1-2.19,2.08-4.57,3-6.62,2.2-4.79,7.1-9.26,8.55-10.51a3.05,3.05,0,0,0,.41-.47,4.8,4.8,0,0,1,2-1.63,7.4,7.4,0,0,1,2.87-.37,10.44,10.44,0,0,0,3-.3c.65-.2,1.44-.49,2.2-.77a16.48,16.48,0,0,1,2.85-.9,2.4,2.4,0,0,0,.39,0,19,19,0,0,0,2.44-.3l2.33-.35a37.69,37.69,0,0,1,4.86-.26c1.48,0,2.56.05,2.69.07h0a4.37,4.37,0,0,0,1.45-.46,11.7,11.7,0,0,1,2.74-.89h.27l.19-.23a32.31,32.31,0,0,0,2.33-4.37,8.85,8.85,0,0,0,.3-4.56,22.14,22.14,0,0,1-.17-2.43c0-.3,0-.63,0-1,0-2.62-.12-6.57,2.34-8.89a12.65,12.65,0,0,1,8.62-3.29,10.87,10.87,0,0,1,10,5.89,7.64,7.64,0,0,1,.75,2.92,13.72,13.72,0,0,0,.26,1.72,10.07,10.07,0,0,0,.68,1.91,3.74,3.74,0,0,1,.48,1.78,1.81,1.81,0,0,1-.53,1.24,1.27,1.27,0,0,0-.33.52,6.45,6.45,0,0,0,.87,3.52l.1.18c.51.94,1,1.83.74,2.09a1.15,1.15,0,0,1-.64.31,1.45,1.45,0,0,0-.75.35.87.87,0,0,1-.29.14,1.06,1.06,0,0,0-.77.66,2.13,2.13,0,0,0,0,1,2.36,2.36,0,0,1,.06.52.48.48,0,0,1,0,.11,1,1,0,0,0-.21.18.71.71,0,0,0-.09.76.45.45,0,0,1,0,.37c0,.1-.12.16-.41.31a2.88,2.88,0,0,0-1,.7,3.12,3.12,0,0,0-.55,1.25c-.16.55-.3,1.08-.74,1.29a2.69,2.69,0,0,1-1.16.18,11.78,11.78,0,0,1-3.33-.55,2.82,2.82,0,0,0-1-.2c-.94,0-1.76.65-3.16,2a10.63,10.63,0,0,0-3.2,5.37,12.77,12.77,0,0,0,.73,3.66c.24.88.53,1.94.85,3.22a15.32,15.32,0,0,1,0,6.79,2.86,2.86,0,0,0-.06.41c0,.22.11.39.49.95a18.6,18.6,0,0,1,2.58,5.2c.87,3.09-.29,7.54-.31,7.58l-.29,1.09,1-.52a8.16,8.16,0,0,1,3.22-.6h.27c.51,0,1,0,1.53.05s1,.05,1.52.05a7.74,7.74,0,0,0,3.42-.67c2-1,10.52-6.08,11.1-6.62a6.16,6.16,0,0,0,.95-2.59,20.57,20.57,0,0,1,1-3.11,9.37,9.37,0,0,1,1.79-2.45,8.13,8.13,0,0,0,1.21-1.53,4.37,4.37,0,0,0,.63-2.5v-.13c0-.3,0-.8.3-.8l.17,0c.1,0,.33.22.24,1.51,0,.1,0,.18,0,.23v.5l.51,0c.34,0,.37-.05,1.17-1.45a27.06,27.06,0,0,1,2.29-3.61,14.28,14.28,0,0,0,1-1.33,3.29,3.29,0,0,1,.65-.78.15.15,0,0,1,.09.08c0,.07.18.48-.38,1.71-.72,1.58-3,6.06-3.16,6.31a1.31,1.31,0,0,0-.15,1,1,1,0,0,0,.54.62l.11.05.21,0c.63,0,1.33-.79,2.68-2.45l.23-.28c1.28-1.57,3.26-3.58,3.76-3.7a.39.39,0,0,1,.3.2.94.94,0,0,1,0,.91,45.13,45.13,0,0,1-3.65,4.47l.69.72s3.64-3,4.3-3.45a1.36,1.36,0,0,1,.43-.26s0,0,.2.2-.12.65-.85,1.54c-.45.55-1.74,1.78-2.87,2.87a17.24,17.24,0,0,0-2.25,2.3.69.69,0,0,0,0,.7.6.6,0,0,0,.52.28,2,2,0,0,0,1.14-.6l.38-.34c.8-.73,2.48-2.24,3.1-2.67a1.4,1.4,0,0,1,.46-.25s0,.06.17.26,0,.57-1.16,1.89a24.27,24.27,0,0,1-2.93,2.7c-.38.31-.67.55-.81.69a18.78,18.78,0,0,0-1.27,1.52l-1.42,1.78a15.27,15.27,0,0,1-6.37,4.15c-1.47.41-2.48,1-6.67,5.18-4,4-21.21,13-22.32,13.44a1.51,1.51,0,0,1-.54.14c-.45,0-1-.71-2.31-2.27-2-2.47-4.2-5.67-4.22-5.7l-.35-.51-.43.45a18.74,18.74,0,0,0-3.55,5.61c-1.2,3.07-3.22,7-3.25,7l-.24.46.46.22a47.72,47.72,0,0,0,8,2.65c5.06,1.3,11.12,4.07,18.52,8.44,6.84,4,9.68,9.74,9.69,10.42a15.36,15.36,0,0,1-3.2,7.22,37.43,37.43,0,0,1-5.41,5.1c-.9.74-1.82,1.5-2.77,2.34a98,98,0,0,1-12,8.67,41.12,41.12,0,0,0-10.49,10.42.25.25,0,0,1-.06.08l-.43-.27-.28.43-.7,1.15.32.28s.3.26.77.69c.19.17.09.59-.12,1.46l-.12.5a11.48,11.48,0,0,0,.12,3.68c0,.31.08.57.09.74a7.66,7.66,0,0,0,2.93,4.59,33.76,33.76,0,0,1,4.08,4.43c.53.65.6.74.71.81a3.23,3.23,0,0,1,.65,1.05,1.46,1.46,0,0,0,.33.66,2,2,0,0,1,.27.42.29.29,0,0,1,0,.2,3.23,3.23,0,0,1-1.6,1.48,4.29,4.29,0,0,1-1.79.29,15.71,15.71,0,0,1-5.61-1.23c-2.2-.91-4.4-3.09-6.54-5.2-.9-.88-1.74-1.72-2.58-2.45-1.47-1.29-4.06-3.08-6.34-4.66a40.18,40.18,0,0,1-4.26-3.14,3.32,3.32,0,0,1-.17-3.56,6.47,6.47,0,0,1,2.23-1.77,8.07,8.07,0,0,0,.84-.52c.24-.18.78-.64,1.41-1.17a36.24,36.24,0,0,1,3-2.38.52.52,0,0,1,.2,0,.74.74,0,0,1,.29.08,1,1,0,0,0,.41.11,2.85,2.85,0,0,0,1.31-.68h.48c.14,0,.25,0,2.26-1.51l.12-.09.05-.14a1.73,1.73,0,0,0,.09-.44c.11-.1.36-.3.63-.51s.75-.59,1.29-1c1.64-1.37,7.55-8,7.61-8a17.53,17.53,0,0,0,2.49-3.79l.79-1.4c1.9-3.33,8.8-9.22,8.87-9.28l.5-.42-.54-.37c-.16-.11-1.14-.65-4.85-.7-1.37,0-2.83-.06-4.41-.11-2.37-.07-5.07-.16-8.06-.16h-1.44a25.42,25.42,0,0,1-8.15-1.43,5,5,0,0,0-1.27-.33h-.1l-.16,0a106.2,106.2,0,0,0-13.25,11.71c-4.12,4.4-10.8,9.35-14.79,12.3-1,.71-1.77,1.31-2.36,1.76a19,19,0,0,0-2.89,2.59c-.59.63-1.39,1.49-3.25,3.19a26.1,26.1,0,0,1-6.88,4.07,29.57,29.57,0,0,0-7.76,4.64,102.22,102.22,0,0,1-12.14,9.45c-2.85,1.9-4.58,5.12-5.72,7.26a15.16,15.16,0,0,1-.86,1.49,9,9,0,0,1-1.46,1.52,4.14,4.14,0,0,0-.92,1,24.37,24.37,0,0,0-1.09,3.07l0,.13,0,.13a6.34,6.34,0,0,0,.38.92c.1.21.06.32-.28.91-.12.21-.27.45-.41.74a7.53,7.53,0,0,1-1.17,1.54,8.27,8.27,0,0,0-.9,1.12c-.58.94-.86,5.47-.72,6.43a13.3,13.3,0,0,0,2,4.66c.69.77.71.8.35,1.7C377.74,348.83,376.44,349.26,374.7,349.26Z"/><path class="cls-1" d="M481.69,158.65a10.38,10.38,0,0,1,9.58,5.61A7.15,7.15,0,0,1,492,167a14.18,14.18,0,0,0,.27,1.78,10.51,10.51,0,0,0,.71,2,3.34,3.34,0,0,1,.44,1.54,1.31,1.31,0,0,1-.4.94,1.72,1.72,0,0,0-.44.72,6.8,6.8,0,0,0,.91,3.89l.1.18a8.94,8.94,0,0,1,.74,1.57,1.05,1.05,0,0,1-.32.11,2,2,0,0,0-1,.46l-.13,0a1.54,1.54,0,0,0-1.08,1,2.54,2.54,0,0,0,0,1.23c0,.08,0,.2,0,.29l-.1.1a1.17,1.17,0,0,0-.19,1.24l-.14.07a3.41,3.41,0,0,0-1.13.82,3.57,3.57,0,0,0-.65,1.44c-.15.54-.26.87-.48,1a2.3,2.3,0,0,1-.94.12,11.15,11.15,0,0,1-3.15-.52,3.37,3.37,0,0,0-1.15-.23c-1.11,0-2,.69-3.51,2.15a11,11,0,0,0-3.35,5.68,12.79,12.79,0,0,0,.75,3.83c.24.87.53,1.94.85,3.21a14.83,14.83,0,0,1,0,6.57,2.47,2.47,0,0,0-.07.5c0,.37.16.61.57,1.23a17.84,17.84,0,0,1,2.52,5.05c.83,3-.3,7.27-.31,7.32l-.56,2.13,2-1a7.76,7.76,0,0,1,3-.55h.26c.5,0,1,0,1.5,0s1,.05,1.55.05a8.21,8.21,0,0,0,3.63-.72c1.91-.92,10.52-6.05,11.22-6.7.47-.43.68-1.22,1.09-2.83a20.13,20.13,0,0,1,.93-3,8.86,8.86,0,0,1,1.7-2.31,8.47,8.47,0,0,0,1.28-1.63,7,7,0,0,0,.41-.9h1c.63,0,.78-.26,1.6-1.7a27.49,27.49,0,0,1,2.23-3.53l.36-.43c-.88,1.85-2.79,5.58-2.92,5.82a1.82,1.82,0,0,0-.21,1.39,1.51,1.51,0,0,0,.79.93,1.19,1.19,0,0,0,.54.13c.85,0,1.55-.76,3.07-2.64l.23-.28a25.11,25.11,0,0,1,3.28-3.38.58.58,0,0,1-.07.26,45.26,45.26,0,0,1-3.58,4.36l1.38,1.44c.91-.74,2.49-2,3.48-2.81l-.11.13c-.44.53-1.76,1.8-2.83,2.83a14.2,14.2,0,0,0-2.35,2.44,1.17,1.17,0,0,0,0,1.19,1.1,1.1,0,0,0,.95.52,2.35,2.35,0,0,0,1.47-.73l.38-.34c.59-.53,1.64-1.48,2.39-2.11L520,209a23.93,23.93,0,0,1-2.87,2.64c-.4.32-.68.56-.85.72A18.73,18.73,0,0,0,515,214l-1.42,1.78a14.9,14.9,0,0,1-6.11,4c-1.7.48-2.81,1.23-6.89,5.31s-21,12.88-22.15,13.33a1.1,1.1,0,0,1-.35.1,10.91,10.91,0,0,1-1.92-2.09l-.06-.08c-2-2.37-4.11-5.56-4.13-5.59l-.69-1-.86.89a19.34,19.34,0,0,0-3.65,5.78c-1.19,3-3.2,6.92-3.22,7l-.48.91.93.45a48.17,48.17,0,0,0,8.11,2.68c5,1.29,11,4,18.39,8.39,6.47,3.82,9.32,9.17,9.44,10a14.79,14.79,0,0,1-3.09,6.9,37,37,0,0,1-5.34,5c-.9.74-1.83,1.51-2.78,2.35a97.44,97.44,0,0,1-11.91,8.62,42.42,42.42,0,0,0-10.43,10.24l-.46-.29-.53.87-.48.78-.44.73.65.55.7.62a6.92,6.92,0,0,1-.21,1l-.12.5a11.81,11.81,0,0,0,.11,3.86c0,.3.08.54.09.7a8.24,8.24,0,0,0,3.12,4.95,33.55,33.55,0,0,1,4,4.35,5.38,5.38,0,0,0,.77.87,2.87,2.87,0,0,1,.5.8,2,2,0,0,0,.43.85,1.37,1.37,0,0,1,.15.21,3.12,3.12,0,0,1-1.33,1.12,3.61,3.61,0,0,1-1.57.24,15.17,15.17,0,0,1-5.42-1.19c-2.1-.87-4.28-3-6.38-5.09-.9-.89-1.75-1.73-2.6-2.47-1.49-1.31-4.09-3.11-6.39-4.7a46.79,46.79,0,0,1-4.14-3,2.82,2.82,0,0,1-.16-3,6.08,6.08,0,0,1,2.07-1.62,8.45,8.45,0,0,0,.89-.55c.26-.2.78-.63,1.43-1.19.87-.74,2.5-2.12,2.83-2.31l.11,0a1.48,1.48,0,0,0,.61.15h.13a3.21,3.21,0,0,0,1.37-.68h.38c.26,0,.36-.06,2.47-1.59l.24-.18.11-.28a2.09,2.09,0,0,0,.09-.36l.46-.37c.33-.26.76-.6,1.31-1.05,1.69-1.41,7.6-8,7.66-8.1a17.92,17.92,0,0,0,2.56-3.88l.79-1.38c1.85-3.25,8.69-9.09,8.75-9.14l1-.85-1.08-.74c-.32-.22-1.47-.74-5.13-.78-1.36,0-2.84-.06-4.4-.11-2.38-.07-5.08-.16-8.08-.16h-1.44a25,25,0,0,1-8-1.4,5.18,5.18,0,0,0-1.42-.35,1.19,1.19,0,0,0-.44.08,102.43,102.43,0,0,0-13.43,11.83c-4.09,4.37-10.75,9.29-14.72,12.24-1,.71-1.78,1.32-2.37,1.77a19.45,19.45,0,0,0-2.95,2.64c-.61.66-1.38,1.48-3.22,3.16a25.73,25.73,0,0,1-6.76,4,30,30,0,0,0-7.88,4.72,101.81,101.81,0,0,1-12.08,9.41c-3,2-4.79,5.39-5.88,7.44a15.25,15.25,0,0,1-.82,1.43,8.44,8.44,0,0,1-1.39,1.44,4.46,4.46,0,0,0-1,1.1,23.62,23.62,0,0,0-1.14,3.17l-.08.26.07.26a7.68,7.68,0,0,0,.4,1,4.48,4.48,0,0,1-.25.47c-.13.22-.28.47-.43.77a7.17,7.17,0,0,1-1.09,1.43,8.57,8.57,0,0,0-1,1.2c-.68,1.12-.92,5.85-.79,6.76a13.76,13.76,0,0,0,2.16,4.93,4.27,4.27,0,0,1,.45.55,1.89,1.89,0,0,1-.19.63c-.13.32-1.1.78-2.85.78a11.33,11.33,0,0,1-1.38-.09c-1.73-.21-4.45-2.32-6.37-4.32-1-1.05-2-2.9-1.77-8.67a36.66,36.66,0,0,0-1.18-9.89,14.91,14.91,0,0,1-.52-3.08c.12-1.73,1.16-4,2-4.41a3.27,3.27,0,0,1,1.4-.25c.32,0,.63,0,.9,0l.58,0a1.83,1.83,0,0,0,.34,0c.26,0,2-.1,3.52-.1.92,0,1.27,0,1.37,0a1.44,1.44,0,0,0,.44.07,2.94,2.94,0,0,0,1.21-.34l.3-.17.15-.3a1.22,1.22,0,0,1,.11-.18l.62-.48a48,48,0,0,0,5.53-4.76c2.82-3,7.59-10.1,10.18-14.09s7.34-6.7,11.47-9c.88-.49,1.71-.95,2.49-1.41,3.94-2.32,5.87-6.13,8.54-11.4.53-1,1.08-2.14,1.69-3.29a27.18,27.18,0,0,1,6.69-8.35,19.54,19.54,0,0,0,2.55-2.57c1.26-1.65,1.79-4.8,2.34-8.14a30.06,30.06,0,0,1,1.48-6.35c1.46-3.23,8.56-8.7,9.16-9.11a3.84,3.84,0,0,1,.79-.27l.2,0,.17-.12a10.91,10.91,0,0,0,3.2-4.21c.5-1.22,1.24-4.06,2.18-7.66s2.11-8.07,3.39-12.25a146.84,146.84,0,0,1,5.77-15.43l1.08-2.39-2.29,1h-.17a13.36,13.36,0,0,1-2-.21,15.76,15.76,0,0,1-3.29-.85l-.24-.1-.26,0c-.45,0-.86.38-1.41,1.13s-7.89,6.83-9.88,8.35-3.52,3.13-5.75,7.05a19.13,19.13,0,0,1-2.85,3.88A4.27,4.27,0,0,0,426,218a9.15,9.15,0,0,0,0,2.44,15.2,15.2,0,0,1,0,2.41,9,9,0,0,1-.85,2.41,7.4,7.4,0,0,0-.94,3.14,3.32,3.32,0,0,0,.45,1.57,2.45,2.45,0,0,1-.52-.64v-.81h-1c-.38,0-.68,0-2.77,2.27-.41.45-.91,1.06-1.44,1.72-.39.48-.91,1.13-1.38,1.67l1.07-3.7-3.19,4.12s-.35.45-.61.76h0a.57.57,0,0,1,0-.11l.43-1-1-.27s0,0,0,0a13,13,0,0,1,.42-2.23l.23-.76-.71-.37a15.91,15.91,0,0,1,.73-2.37,5.14,5.14,0,0,1,.46-1,3.36,3.36,0,0,0,.34-.71c.05-.15.35-.68.55-1a8.22,8.22,0,0,0,.92-1.94,2.92,2.92,0,0,1,.16-.46,6.53,6.53,0,0,0,.44-1.55,4.06,4.06,0,0,1,.55-1.34c.24-.44.53-1,.88-1.78a11.75,11.75,0,0,1,2.81-3.09,6.19,6.19,0,0,0,1.28-1.3c.23-.4,1.34-2.84,3.28-7.12,1-2.2,2.08-4.59,3-6.64,2.16-4.69,7-9.1,8.42-10.34l0,0a3.29,3.29,0,0,0,.44-.51,4.3,4.3,0,0,1,1.76-1.47,7.11,7.11,0,0,1,2.67-.32,10.79,10.79,0,0,0,3.09-.33c.67-.21,1.46-.5,2.22-.78a20.66,20.66,0,0,1,2.66-.86l.41,0a19.07,19.07,0,0,0,2.52-.31l2.31-.35a37.13,37.13,0,0,1,4.79-.26c1.49,0,2.51.05,2.62.06h.16a4.72,4.72,0,0,0,1.57-.5,12.78,12.78,0,0,1,2.55-.85l.57,0,.31-.48a32.76,32.76,0,0,0,2.37-4.45,9.23,9.23,0,0,0,.33-4.81,21.76,21.76,0,0,1-.17-2.38c0-.3,0-.64,0-1,0-2.53-.12-6.35,2.18-8.52a12.14,12.14,0,0,1,8.28-3.15m0-1a13.18,13.18,0,0,0-9,3.42c-3,2.79-2.48,7.62-2.48,10.24s.78,4.71-.09,6.8a32.05,32.05,0,0,1-2.29,4.29h0c-1,0-3.75,1.35-4.12,1.35h0c-.15,0-1.29-.07-2.76-.07a37.81,37.81,0,0,0-4.93.27c-2.51.36-3.95.65-4.69.65l-.29,0h-.09c-.78,0-3.45,1.14-5.2,1.68s-4.27,0-5.88.7a6.49,6.49,0,0,0-2.44,2.13c-.35.3-6.23,5.32-8.71,10.72s-5.93,13.07-6.27,13.68-3.31,2.61-4.14,4.49-1.35,2.37-1.5,3.38a15.14,15.14,0,0,1-.59,2c-.11.54-1.26,2.33-1.44,2.85s-.37.54-.78,1.66a14.63,14.63,0,0,0-.81,2.72,1,1,0,0,0,.52.87,14.66,14.66,0,0,0-.46,2.47.94.94,0,0,0,.63,1,1.36,1.36,0,0,0,.08,1.19.86.86,0,0,0,.72.31,1.18,1.18,0,0,0,.85-.31c.27-.33.69-.86.69-.86a.71.71,0,0,0,.5.9h.06c.77,0,3.08-3.29,4.33-4.65a11.91,11.91,0,0,1,2-2h0a2.75,2.75,0,0,0,1.55,1.57,2.33,2.33,0,0,0,.57.07c.7,0,1.24-.32,1.1-.68s-1.09-.72-1.15-2.14,1.61-3.66,1.79-5.4-.24-3.66,0-4.73,1.85-1.74,4-5.49,3.62-5.32,5.49-6.75,9.54-7.82,10.06-8.54.72-.74.72-.74a16.41,16.41,0,0,0,3.53.91,14.29,14.29,0,0,0,2.12.22,1.43,1.43,0,0,0,.47,0,146.57,146.57,0,0,0-5.82,15.55C445,221.61,443,230.8,442,233.16a9.92,9.92,0,0,1-2.88,3.79,4.81,4.81,0,0,0-1.09.39c-.35.22-7.93,6-9.54,9.54s-1.7,11.68-3.7,14.29-5.75,4.27-9.32,11.07-5.4,11.68-9.85,14.29-10.89,5.49-14.29,10.72-7.58,11.33-10.06,13.94a61.2,61.2,0,0,1-6.17,5.25,2.14,2.14,0,0,0-.28.44,2.1,2.1,0,0,1-.75.23.4.4,0,0,1-.17,0,10.22,10.22,0,0,0-1.65-.07c-1.46,0-3.4.05-3.69.11h-.17c-.32,0-.86-.08-1.48-.08a4.28,4.28,0,0,0-1.83.35c-1.33.63-2.46,3.29-2.59,5.25s2,7,1.7,13,.83,8.15,2,9.41,4.49,4.31,7,4.62a12.33,12.33,0,0,0,1.5.09c1.86,0,3.39-.47,3.77-1.4.48-1.18.3-1.39-.44-2.22a13,13,0,0,1-1.92-4.4c-.13-.91.17-5.32.65-6.1a30.85,30.85,0,0,0,2.09-2.7c.52-1,1-1.44.7-2.09a6.25,6.25,0,0,1-.35-.83,25.51,25.51,0,0,1,1-3c.35-.61,1.39-1.13,2.35-2.44s2.79-6.19,6.45-8.63a102.78,102.78,0,0,0,12.2-9.5c4.53-4.1,10.54-5,14.64-8.71s3-3.4,6.1-5.75,12.07-8.63,17.21-14.12a108.2,108.2,0,0,1,13.07-11.59h.07c.67,0,4.22,1.75,9.42,1.75h1.44c5,0,9,.23,12.47.27,3.75,0,4.58.61,4.58.61s-7,6-9,9.41-2.13,3.88-3.22,5.1-6.1,6.78-7.56,8-2.09,1.59-2.09,1.81a1.25,1.25,0,0,1-.06.39s-1.92,1.39-2,1.42h0l-.28,0a.59.59,0,0,0-.42.15,2.57,2.57,0,0,1-1,.54h0c-.15,0-.37-.19-.7-.19a1,1,0,0,0-.39.08c-.59.24-3.79,3.09-4.49,3.62s-2.27,1.09-3.18,2.4a3.82,3.82,0,0,0,.17,4.14c.7,1,7.84,5.4,10.67,7.89s6,6.4,9.26,7.73a16,16,0,0,0,5.8,1.26,4.69,4.69,0,0,0,2-.35c1.29-.65,2.16-1.72,1.83-2.35s-.44-.48-.57-1a3.43,3.43,0,0,0-.87-1.35,47,47,0,0,0-4.75-5.21,7.3,7.3,0,0,1-2.75-4.23,16,16,0,0,1-.22-4.27c.31-1.31.57-2,.09-2.44l-.78-.7.48-.78a.61.61,0,0,0,.3.08.55.55,0,0,0,.49-.34,40.66,40.66,0,0,1,10.33-10.24,97.67,97.67,0,0,0,12-8.71c3-2.7,5.88-4.62,8.23-7.49a15.64,15.64,0,0,0,3.31-7.54c0-1-3-6.75-9.93-10.85s-13.25-7.1-18.65-8.5a47.56,47.56,0,0,1-7.93-2.61s2-3.92,3.27-7.06a18.45,18.45,0,0,1,3.44-5.45s2.18,3.22,4.18,5.66c1.53,1.86,2.07,2.53,2.76,2.53a2,2,0,0,0,.72-.18c1.18-.48,18.39-9.45,22.48-13.55s5.05-4.66,6.45-5.05a15.79,15.79,0,0,0,6.62-4.31c1.79-2.22,2.22-2.83,2.66-3.27a39.15,39.15,0,0,0,3.77-3.42c1.2-1.42,1.57-1.92,1.2-2.48-.21-.32-.36-.49-.59-.49a1.49,1.49,0,0,0-.74.34c-.76.52-2.9,2.48-3.53,3.05a1.61,1.61,0,0,1-.81.47c-.12,0-.15-.09-.06-.26.2-.39,4.14-4,5.05-5.08s1.26-1.74.83-2.2c-.22-.23-.38-.36-.57-.36a1.38,1.38,0,0,0-.72.36c-.68.5-4.31,3.46-4.31,3.46a51.19,51.19,0,0,0,3.73-4.57c.45-.89,0-1.83-.74-1.83h0c-.72,0-3.14,2.7-4.1,3.88s-2,2.55-2.52,2.55l-.09,0a.62.62,0,0,1-.17-.91c.13-.22,2.44-4.75,3.18-6.36s.52-2.35-.09-2.48h-.1c-.56,0-1,1.08-2,2.28s-2.95,4.9-3.09,4.9,0,0,0,0c0-.31.26-2-.61-2.22a1.19,1.19,0,0,0-.29,0c-.63,0-.8.65-.8,1.3a4,4,0,0,1-.57,2.4c-.61,1.13-2.18,2.18-3,4s-1.26,5.05-1.79,5.53-8.89,5.53-11,6.54a7.18,7.18,0,0,1-3.2.62c-1,0-2-.1-3.05-.1h-.28a8.42,8.42,0,0,0-3.44.65s1.22-4.57.31-7.84-3.05-5.75-3.05-6a16.37,16.37,0,0,0,0-7.32c-1-3.83-1.66-5.75-1.57-6.71a10.17,10.17,0,0,1,3.05-5.05c1.43-1.4,2.12-1.87,2.81-1.87a2.38,2.38,0,0,1,.81.17,12.16,12.16,0,0,0,3.49.58,3.29,3.29,0,0,0,1.39-.23c1-.52.87-2,1.44-2.66s1.29-.59,1.48-1.18-.17-.78,0-1,.31-.15.35-.57-.22-1.07-.11-1.42.63-.28.94-.59.87-.13,1.39-.68,0-1.48-.76-2.85a6.23,6.23,0,0,1-.83-3.16c.09-.33.78-.59.87-1.85s-.78-2.13-1.18-3.83-.13-2.92-1-4.75a11.36,11.36,0,0,0-10.47-6.17Z"/><path class="cls-2" d="M279.11,520.38a1.15,1.15,0,0,1-1.12,1.15c-33.79,1.08-44.77,7.2-44.88,7.26l-.18.07-.09,0a1.21,1.21,0,0,1-.25,0h-.06a1.15,1.15,0,0,1-.28,0l-.06,0-.16-.06c-.13-.06-13.33-6.21-45-7.3a1.15,1.15,0,0,1-1.11-1.15v-68h-7.7v77h47.57a1.15,1.15,0,0,1,1.1.8c.05.16,1.37,4,5.21,4s5.18-4,5.19-4a1.15,1.15,0,0,1,1.1-.8h48.38v-77h-7.7Z"/><path class="cls-2" d="M188.27,519.27c25.48,1,38.73,5.13,43.11,6.8V457.95c-2.57-1.84-16.72-11-43.11-11.28Zm6.76-66.1c.86.07,21.17,1.83,31.42,8.84a1.11,1.11,0,0,1-1.25,1.84c-9.78-6.68-30.15-8.44-30.36-8.46a1.11,1.11,0,0,1,.18-2.22Zm0,9.27c.85.07,21.05,1.69,31.36,8.24a1.11,1.11,0,0,1-1.19,1.88c-9.84-6.26-30.13-7.89-30.34-7.9a1.11,1.11,0,0,1,.17-2.22Zm0,9.27c.85.06,20.94,1.54,31.29,7.65a1.11,1.11,0,1,1-1.13,1.92c-9.9-5.84-30.12-7.33-30.32-7.34a1.11,1.11,0,0,1-1-1.19A1.14,1.14,0,0,1,195,471.7Zm0,9.27c.85.05,20.82,1.4,31.23,7.05a1.11,1.11,0,0,1-1.06,2c-10-5.42-30.1-6.77-30.31-6.79A1.11,1.11,0,0,1,195,481Zm0,9.27c.84,0,20.71,1.25,31.16,6.46a1.11,1.11,0,0,1-.5,2.11,1.1,1.1,0,0,1-.49-.12c-10-5-30.09-6.22-30.29-6.23a1.11,1.11,0,1,1,.13-2.22Zm0,9.27c.84,0,20.59,1.11,31.08,5.86a1.11,1.11,0,1,1-.92,2c-10.11-4.58-30.08-5.66-30.28-5.67a1.11,1.11,0,0,1,.11-2.22Zm0,9.27c.83,0,20.47,1,31,5.27a1.11,1.11,0,1,1-.84,2.06C215,511.94,195.09,511,194.89,511a1.11,1.11,0,0,1-1.06-1.16A1.1,1.1,0,0,1,195,508.77Z"/><path class="cls-3" d="M276.8,446.67c-16.17.14-27,3.2-33.37,5.77a38,38,0,0,0-9.74,5.45V526c4.19-1.76,16.47-5.76,43.11-6.71Zm-39,15.34c10.26-7,30.56-8.77,31.42-8.84a1.11,1.11,0,0,1,.18,2.22c-.2,0-20.59,1.79-30.35,8.46a1.11,1.11,0,0,1-1.25-1.84Zm.07,8.67c10.31-6.55,30.5-8.18,31.36-8.24a1.11,1.11,0,0,1,.17,2.22c-.2,0-20.5,1.65-30.34,7.9a1.11,1.11,0,1,1-1.19-1.88Zm.07,8.67c10.35-6.1,30.44-7.59,31.29-7.65a1.13,1.13,0,0,1,1.19,1,1.11,1.11,0,0,1-1,1.19c-.2,0-20.42,1.51-30.32,7.34a1.11,1.11,0,0,1-1.13-1.92ZM238,488c10.4-5.65,30.38-7,31.23-7.05a1.11,1.11,0,1,1,.14,2.22c-.2,0-20.34,1.37-30.31,6.79a1.11,1.11,0,0,1-1.06-2Zm.08,8.67c10.45-5.2,30.32-6.41,31.16-6.46a1.11,1.11,0,0,1,.13,2.22c-.2,0-20.25,1.23-30.29,6.23a1.1,1.1,0,0,1-.49.12,1.11,1.11,0,0,1-.5-2.11Zm.08,8.67c10.49-4.75,30.25-5.82,31.08-5.86a1.09,1.09,0,0,1,1.17,1.05,1.11,1.11,0,0,1-1.05,1.17c-.2,0-20.17,1.09-30.28,5.67a1.11,1.11,0,0,1-.92-2ZM269.37,511c-.2,0-20.09.95-30.27,5.11a1.11,1.11,0,0,1-.84-2.06c10.54-4.31,30.18-5.23,31-5.27a1.1,1.1,0,0,1,1.16,1.06A1.11,1.11,0,0,1,269.37,511Z"/><path class="cls-1" d="M288,450.09h-8.85v-4.59a1.16,1.16,0,0,0-1.15-1.15c-29.12,0-42.32,9-45.47,11.54-3.42-2.43-18.06-11.54-45.37-11.54a1.16,1.16,0,0,0-1.15,1.15v4.59h-8.85a1.16,1.16,0,0,0-1.15,1.15v79.29a1.16,1.16,0,0,0,1.15,1.15H225a8,8,0,0,0,6.9,4.82h.38a8,8,0,0,0,6.88-4.82H288a1.16,1.16,0,0,0,1.15-1.15V451.25A1.16,1.16,0,0,0,288,450.09Zm-56.58,76c-4.38-1.67-17.63-5.82-43.11-6.8v-72.6c26.39.26,40.54,9.44,43.11,11.28Zm2.31-68.17a38,38,0,0,1,9.74-5.45c6.32-2.57,17.2-5.63,33.37-5.77v72.6c-26.64,1-38.92,5-43.11,6.71Zm53.12,71.49H238.43a1.15,1.15,0,0,0-1.1.8s-1.32,4-5.19,4-5.16-3.87-5.21-4a1.15,1.15,0,0,0-1.1-.8H178.26v-77H186v68a1.15,1.15,0,0,0,1.11,1.15c31.63,1.09,44.83,7.24,45,7.3l.16.06.06,0a1.15,1.15,0,0,0,.28,0h.06a1.21,1.21,0,0,0,.25,0l.09,0,.18-.07c.11-.06,11.09-6.17,44.88-7.26a1.15,1.15,0,0,0,1.12-1.15v-68h7.7Z"/><path class="cls-1" d="M194.85,455.39c.2,0,20.58,1.78,30.36,8.46a1.11,1.11,0,1,0,1.25-1.84c-10.26-7-30.57-8.77-31.42-8.84a1.11,1.11,0,0,0-.18,2.22Z"/><path class="cls-1" d="M194.85,464.65c.2,0,20.5,1.64,30.34,7.9a1.11,1.11,0,0,0,1.19-1.88c-10.31-6.55-30.51-8.18-31.36-8.24a1.11,1.11,0,0,0-.17,2.22Z"/><path class="cls-1" d="M194.86,473.92c.2,0,20.42,1.51,30.32,7.34a1.11,1.11,0,0,0,1.13-1.92c-10.35-6.1-30.44-7.59-31.29-7.65a1.14,1.14,0,0,0-1.19,1A1.11,1.11,0,0,0,194.86,473.92Z"/><path class="cls-1" d="M194.87,483.19c.2,0,20.33,1.37,30.31,6.79a1.11,1.11,0,0,0,1.06-2c-10.4-5.65-30.38-7-31.23-7.05a1.11,1.11,0,0,0-.14,2.22Z"/><path class="cls-1" d="M194.87,492.46c.2,0,20.25,1.23,30.29,6.23a1.1,1.1,0,0,0,.49.12,1.11,1.11,0,0,0,.5-2.11c-10.45-5.2-30.32-6.41-31.16-6.46a1.11,1.11,0,1,0-.13,2.22Z"/><path class="cls-1" d="M194.88,501.72c.2,0,20.17,1.09,30.28,5.67a1.11,1.11,0,1,0,.92-2c-10.49-4.75-30.25-5.82-31.08-5.86a1.11,1.11,0,0,0-.11,2.22Z"/><path class="cls-1" d="M194.89,511c.2,0,20.09.95,30.27,5.11A1.11,1.11,0,0,0,226,514c-10.54-4.31-30.18-5.23-31-5.27a1.1,1.1,0,0,0-1.16,1.06A1.11,1.11,0,0,0,194.89,511Z"/><path class="cls-1" d="M237.9,465.5a.74.74,0,0,0,.65-.25c10.68-10.58,31.21-10.39,31.41-10.38.62,0,1.15-.9,1.18-2s-.43-2.07-1-2.06c-.87,0-21.32-.21-32.53,10.9a3.14,3.14,0,0,0-.51,2.78C237.23,465.08,237.55,465.44,237.9,465.5Z"/><path class="cls-1" d="M237.92,473.88a.86.86,0,0,0,.65-.23c11.34-9.52,32.72-10.06,32.93-10.07.64,0,1.22-.87,1.28-1.91s-.43-1.88-1.06-1.86c-.9,0-22.18.56-34.06,10.53a2.69,2.69,0,0,0-.63,2.56C237.2,473.5,237.54,473.84,237.92,473.88Z"/><path class="cls-1" d="M237.93,482.66a.84.84,0,0,0,.61-.21c11.28-9,32.56-9.51,32.77-9.51.64,0,1.21-.88,1.27-1.93s-.44-1.89-1.06-1.89c-.89,0-22,.51-33.83,9.93a2.7,2.7,0,0,0-.67,2.57C237.18,482.25,237.53,482.62,237.93,482.66Z"/><path class="cls-1" d="M237.91,490.9a.82.82,0,0,0,.58-.17c11.41-8.25,32.58-8.27,32.79-8.27.64,0,1.23-.86,1.31-1.93s-.37-1.94-1-1.94c-.89,0-21.9,0-33.8,8.62a2.72,2.72,0,0,0-.76,2.57C237.14,490.44,237.5,490.85,237.91,490.9Z"/><path class="cls-1" d="M237.91,500.51a.79.79,0,0,0,.54-.15c11.39-7.68,32.46-7.57,32.67-7.57.64,0,1.23-.87,1.31-2s-.36-1.94-1-2c-.88,0-21.75-.12-33.61,7.87a2.73,2.73,0,0,0-.8,2.57C237.12,500,237.48,500.46,237.91,500.51Z"/><path class="cls-1" d="M237.87,518.07a.76.76,0,0,0,.5-.12c11.55-7,32.5-6.3,32.71-6.29.64,0,1.25-.86,1.36-2s-.31-2.09-1-2.07c-.88,0-21.6-.72-33.59,6.54a2.83,2.83,0,0,0-.92,2.6C237.07,517.52,237.43,518,237.87,518.07Z"/><path class="cls-1" d="M271.78,519.41c-.88.07-21.7,1.72-32.87,9.38a2.59,2.59,0,0,0-.65,2.58c.19.77.63,1.23,1.09,1.23a.78.78,0,0,0,.44-.15c10.79-7.4,31.88-9.07,32.09-9.09.65,0,1.15-1,1.12-2.07S272.45,519.36,271.78,519.41Z"/><path class="cls-1" d="M237.91,509.22a.79.79,0,0,0,.54-.15c11.39-7.68,32.46-7.57,32.67-7.57.64,0,1.23-.87,1.31-2s-.36-1.94-1-2c-.88,0-21.75-.12-33.61,7.87A2.73,2.73,0,0,0,237,508C237.12,508.73,237.48,509.17,237.91,509.22Z"/><path id="outer" class="cls-4" d="M194.9,24.88H463.77s65.51,75.55,174.7,117.52c0,0,73.7,408.52-308.46,583.4C330,725.8-9.83,622.27,9.28,141,9.28,141,115.73,106,194.9,24.88Z"/><path id="inner" class="cls-5" d="M207.11,55.45H451s59.43,68.8,158.47,107c0,0,66.85,372.06-279.8,531.33,0,0-308.27-94.29-290.94-532.6C38.73,161.2,135.3,129.35,207.11,55.45Z"/><path class="cls-1" d="M432.91,435.26a20.76,20.76,0,0,0-5.06-8.46,24.26,24.26,0,0,0-9.65-5.74A47.57,47.57,0,0,0,402.94,419q-1.39,0-2.88.06t-3,.17v55.18a35.43,35.43,0,0,0,5,.7q2.13.12,4.48.12,14.4,0,21.11-7.88t6.72-21.91A34.08,34.08,0,0,0,432.91,435.26Z"/><path class="cls-1" d="M328.22,386V674.61S524.41,590.73,579.86,386ZM467.29,555.3q-4.32,1.16-8,1.85a33,33,0,0,1-5.7.7,11.14,11.14,0,0,1-6-1.85,12.71,12.71,0,0,1-4.42-4.52l-30.6-63.18a19.64,19.64,0,0,1-2.13.12h-2a53.35,53.35,0,0,1-5.55-.29,46.53,46.53,0,0,1-5.76-1v53.56q0,1.39,3.47,3.42t11.25,3.65v8.46h-56v-8.46a47.1,47.1,0,0,0,10.93-3.54q3.68-1.91,3.68-3.53V422.11q-3.84.58-7.52,1.1t-7.09,1.1l-1.39-10.67q11.3-2.66,24.58-4.81a179.88,179.88,0,0,1,28.63-2.14q14.5,0,24.68,2.67A48.67,48.67,0,0,1,449,416.77,28.7,28.7,0,0,1,458.34,428a33,33,0,0,1,2.93,13.85,46.86,46.86,0,0,1-2.19,14.66A43.74,43.74,0,0,1,453,468.53a42,42,0,0,1-9.38,9.39,49.56,49.56,0,0,1-12.1,6.43l33.59,50.54a27.72,27.72,0,0,0,3.25,3.94,10.45,10.45,0,0,0,3.41,2.26,13.18,13.18,0,0,0,4.37.87,44.31,44.31,0,0,0,6.13-.23l1.6,8.46q-3.52,1.28-7.89,2.61T467.29,555.3Z"/><path class="cls-1" d="M209.62,71.79s-67.18,63.69-155.79,99.07c0,0,7.15,162.76,28.58,215.13H328.22V71.79Zm57.72,265.35q-2,9.22-3.36,13.39H124.32v-6.19a104.15,104.15,0,0,0,17.44-4.39q6.3-2.38,6.3-4.39V184.18q0-1.73-6-4.32t-17.76-4.61v-6.19H198v6.19a98.94,98.94,0,0,0-17.44,4.47q-6.31,2.45-6.3,4.46V326.91a7.58,7.58,0,0,0,1.39,4.54,10.56,10.56,0,0,0,4.83,3.31,38.62,38.62,0,0,0,9.33,2.09,126.31,126.31,0,0,0,14.9.72h23.41a93.63,93.63,0,0,0,12.69-.72,22.28,22.28,0,0,0,9.09-3.24,24.44,24.44,0,0,0,7.12-7.42,80.07,80.07,0,0,0,6.63-13.39l7,2.59A195.63,195.63,0,0,1,267.33,337.14Z"/><path class="cls-1" d="M1013.35,305.56q-.75,9.38-1.77,19.73t-2,19.62q-1,9.27-2,16.46t-1.77,10.47H831.51V355.92q12.67-3.05,19.1-6.65t6.43-6.65V126.55q0-2.62-6.06-6.54t-19.47-7V97.12h97.81V113q-12.67,3.06-19.19,6.76t-6.52,6.76v203a14.26,14.26,0,0,0,1.58,6.87,12.7,12.7,0,0,0,5.5,5,35,35,0,0,0,10.62,3.16,108.5,108.5,0,0,0,17,1.09h21.05a38.24,38.24,0,0,0,14.44-2.4,26.48,26.48,0,0,0,10.34-7.74,54.48,54.48,0,0,0,8.11-14.06q3.63-8.72,7.55-21.58Z"/><path class="cls-1" d="M1163.21,285.07a24.91,24.91,0,0,1-4.1,3.47,61.82,61.82,0,0,1-5.84,3.63q-3.16,1.74-6.39,3.31t-5.76,2.52h-74.62a83.33,83.33,0,0,0,3.08,20.9,52.52,52.52,0,0,0,7.81,16.48,36.24,36.24,0,0,0,12.23,10.81,34.2,34.2,0,0,0,16.48,3.86,80.59,80.59,0,0,0,9.54-.55,43.38,43.38,0,0,0,10.1-2.6,97.91,97.91,0,0,0,12.23-5.76A182.35,182.35,0,0,0,1154.06,331a9.09,9.09,0,0,1,2.29,1.89,29.42,29.42,0,0,1,2.52,3.08q1.18,1.66,2.13,3.08a22.76,22.76,0,0,1,1.26,2.05,230.13,230.13,0,0,1-19.56,18,89.68,89.68,0,0,1-16.64,10.81,61.13,61.13,0,0,1-15.85,5.29,98.24,98.24,0,0,1-17.35,1.42,61,61,0,0,1-25.32-5.36,62.69,62.69,0,0,1-20.82-15.14,72.73,72.73,0,0,1-14.12-23.51,85.24,85.24,0,0,1-5.21-30.45q0-21.45,8.12-38.26a76.28,76.28,0,0,1,24.37-28.63,79.72,79.72,0,0,1,9.23-5.76,75.69,75.69,0,0,1,10.73-4.73,83.72,83.72,0,0,1,11.59-3.15,61.75,61.75,0,0,1,12-1.18q15.46,0,26.74,5.36A53.42,53.42,0,0,1,1148.78,240a59,59,0,0,1,10.88,20.59A83.58,83.58,0,0,1,1163.21,285.07Zm-65.47-45.75a26.94,26.94,0,0,0-12.78,2.84,25.43,25.43,0,0,0-9.07,8.2,43.13,43.13,0,0,0-5.84,12.94,99.82,99.82,0,0,0-3.08,17h52.53q3.63,0,4.81-1.18t1.18-4.5a53.84,53.84,0,0,0-1.26-10.81,37.33,37.33,0,0,0-4.5-11.52,30,30,0,0,0-8.6-9.23Q1105.79,239.33,1097.75,239.33Z"/><path class="cls-1" d="M1364.19,371.84V360.32a85.73,85.73,0,0,0,9.23-2.76A39.29,39.29,0,0,0,1379,355a8.61,8.61,0,0,0,2.76-2.21,3.69,3.69,0,0,0,.71-2.13v-74a93.2,93.2,0,0,0-1-15.46,24,24,0,0,0-3-8.83,9.22,9.22,0,0,0-5.13-3.94,25.91,25.91,0,0,0-7.41-.95q-6.94,0-16.25,4.89t-19.56,14.83V350.7a3.44,3.44,0,0,0,.79,2.13,8.82,8.82,0,0,0,2.92,2.13,45.78,45.78,0,0,0,6.07,2.45q3.94,1.34,10.1,2.92v11.52H1273.8V360.32a91.87,91.87,0,0,0,9.31-2.76,34.54,34.54,0,0,0,5.6-2.52,10,10,0,0,0,2.76-2.21,3.45,3.45,0,0,0,.79-2.13v-74a120.67,120.67,0,0,0-.79-15.46,23.63,23.63,0,0,0-2.6-8.83,8.6,8.6,0,0,0-4.73-3.94,24.13,24.13,0,0,0-7.34-.95q-7.1,0-16.25,4.73t-20.82,15V350.7q0,2.37,4.73,4.89t15,4.73v11.52H1181V360.32a129.59,129.59,0,0,0,15.62-4.81q5.21-2.13,5.21-4.81V263.15a97.6,97.6,0,0,0-.39-9.94,9,9,0,0,0-2.37-5.6,12.54,12.54,0,0,0-6.23-2.92q-4.26-.95-11.83-1.89v-11q8.2-.95,14.83-2.05t12.54-2.52q5.92-1.42,11.28-3.08t11-3.71l6.62,6.63,1.74,19.56a177.35,177.35,0,0,1,16.33-12.86,88.75,88.75,0,0,1,14.12-8,58.76,58.76,0,0,1,24.29-5.28,43.46,43.46,0,0,1,13.41,1.89,31.73,31.73,0,0,1,9.94,5.13,26.72,26.72,0,0,1,6.63,7.57,29.29,29.29,0,0,1,3.47,9.39l.47,2.21a161.33,161.33,0,0,1,16.41-12.78,98.6,98.6,0,0,1,14.28-8,59.64,59.64,0,0,1,12.7-4.18A61,61,0,0,1,1383,220.4a47.67,47.67,0,0,1,14.36,2.13,30.56,30.56,0,0,1,11.91,6.94,33.52,33.52,0,0,1,8.12,12.54q3,7.73,3,18.77V350.7q0,2.21,4.89,4.34t17.35,5.29v11.52Z"/><path class="cls-1" d="M1607.76,291.86a59.59,59.59,0,0,1-3.31,19,91.82,91.82,0,0,1-9.15,19.24,112.59,112.59,0,0,1-13.8,17.83,110.61,110.61,0,0,1-17.12,14.83,83.62,83.62,0,0,1-19.32,10.1,58.93,58.93,0,0,1-20.27,3.71,51.44,51.44,0,0,1-10.88-1.5,140.42,140.42,0,0,1-14.43-4.18q-7.81-2.68-16.48-6.31t-17.19-7.89V172.12a86.48,86.48,0,0,0-.55-11.2,9.87,9.87,0,0,0-2.6-5.92,10.76,10.76,0,0,0-5.84-2.6q-3.79-.63-10.25-1.42v-11q7.41-1.26,14-2.45t12.62-2.68q6.07-1.5,11.91-3.31t11.67-4.18q.63.63,1.74,1.66t2.37,2.13q1.42,1.26,2.84,2.68V245.32a124.06,124.06,0,0,1,15.54-11.52,110.85,110.85,0,0,1,14.67-7.73,76.47,76.47,0,0,1,12.94-4.34,48.22,48.22,0,0,1,10.49-1.34,43.3,43.3,0,0,1,21,5,46.3,46.3,0,0,1,15.85,14.36,70.76,70.76,0,0,1,10.1,22.48A113.74,113.74,0,0,1,1607.76,291.86Zm-34.86,14.36q0-15.77-2.76-26.9t-7.49-18.22a28.62,28.62,0,0,0-24.77-13.57q-5.52,0-14.12,3.79t-20.11,13.57v72.57a123.61,123.61,0,0,0,22.32,9.7q9.7,2.92,14.28,2.92a28.72,28.72,0,0,0,14.36-3.47,30.69,30.69,0,0,0,10.25-9.39,41.74,41.74,0,0,0,6.07-13.88A71.14,71.14,0,0,0,1572.9,306.21Z"/><path class="cls-1" d="M1765.67,285.07a24.91,24.91,0,0,1-4.1,3.47,61.82,61.82,0,0,1-5.84,3.63q-3.16,1.74-6.39,3.31t-5.76,2.52H1669a83.33,83.33,0,0,0,3.08,20.9,52.52,52.52,0,0,0,7.81,16.48,36.24,36.24,0,0,0,12.23,10.81,34.2,34.2,0,0,0,16.48,3.86,80.59,80.59,0,0,0,9.54-.55,43.38,43.38,0,0,0,10.1-2.6,97.91,97.91,0,0,0,12.23-5.76A182.35,182.35,0,0,0,1756.52,331a9.09,9.09,0,0,1,2.29,1.89,29.42,29.42,0,0,1,2.52,3.08q1.18,1.66,2.13,3.08a22.76,22.76,0,0,1,1.26,2.05,230.13,230.13,0,0,1-19.56,18,89.68,89.68,0,0,1-16.64,10.81,61.13,61.13,0,0,1-15.85,5.29,98.24,98.24,0,0,1-17.35,1.42,61,61,0,0,1-25.32-5.36,62.69,62.69,0,0,1-20.82-15.14,72.73,72.73,0,0,1-14.12-23.51,85.24,85.24,0,0,1-5.21-30.45q0-21.45,8.12-38.26a76.28,76.28,0,0,1,24.37-28.63,79.72,79.72,0,0,1,9.23-5.76,75.69,75.69,0,0,1,10.73-4.73,83.72,83.72,0,0,1,11.59-3.15,61.75,61.75,0,0,1,12-1.18q15.46,0,26.74,5.36A53.42,53.42,0,0,1,1751.23,240a59,59,0,0,1,10.88,20.59A83.58,83.58,0,0,1,1765.67,285.07Zm-65.47-45.75a26.94,26.94,0,0,0-12.78,2.84,25.43,25.43,0,0,0-9.07,8.2,43.13,43.13,0,0,0-5.84,12.94,99.82,99.82,0,0,0-3.08,17H1722q3.63,0,4.81-1.18t1.18-4.5a53.84,53.84,0,0,0-1.26-10.81,37.33,37.33,0,0,0-4.5-11.52,30,30,0,0,0-8.6-9.23Q1708.25,239.33,1700.2,239.33Z"/><path class="cls-1" d="M1914,227.34q.95.63.95,4a59.16,59.16,0,0,1-.71,8.28q-.71,4.89-2,10.88t-2.68,11.67q-1.42,5.68-3,10.57a81.79,81.79,0,0,1-2.84,7.73h-11.52a71.35,71.35,0,0,0-1.89-12,46.74,46.74,0,0,0-3.55-9.86,19.76,19.76,0,0,0-5.21-6.63,10.76,10.76,0,0,0-6.86-2.45,22.67,22.67,0,0,0-6.86,1.18,24.06,24.06,0,0,0-7.81,4.57,51,51,0,0,0-8.6,9.7,102.17,102.17,0,0,0-9.23,16.72V350.7q0,2.37,6.55,4.89t21.38,4.73v11.52h-86.61V360.32q20.82-4.73,20.82-9.62V267.09q0-5.21-.32-8.76a49.59,49.59,0,0,0-.79-5.76,12.66,12.66,0,0,0-1.18-3.47,15.9,15.9,0,0,0-1.34-2.05,12.08,12.08,0,0,0-2.29-1.81,11.53,11.53,0,0,0-3-1.18,28.31,28.31,0,0,0-4.65-.71q-2.84-.24-7.26-.55v-11q8.67-1.26,15.07-2.37t11.91-2.37q5.52-1.26,10.81-2.84t11.91-3.79l6.62,6.63,2.05,22.87a83.38,83.38,0,0,1,9.62-11.52,73.81,73.81,0,0,1,11.44-9.39,56.1,56.1,0,0,1,12.7-6.31A40.89,40.89,0,0,1,1889,220.4a47,47,0,0,1,12.54,1.81A54.58,54.58,0,0,1,1914,227.34Z"/><path class="cls-1" d="M2061,270.72a46.21,46.21,0,0,1-5.36,22.16,55,55,0,0,1-14.36,17.19,68.23,68.23,0,0,1-20.82,11.2,76.88,76.88,0,0,1-24.92,4h-1.58q-6,5.52-7.65,8.91a14.55,14.55,0,0,0-1.66,4.34,4.72,4.72,0,0,0,.95,2.76q.95,1.34,4.5,2.68a72.19,72.19,0,0,0,10.73,2.76q7.18,1.42,19.48,3a221.39,221.39,0,0,1,30.6,5.76q12.15,3.39,19.32,8.12t10,10.88a32.76,32.76,0,0,1,2.84,13.88,35.41,35.41,0,0,1-3.39,14.83,59.25,59.25,0,0,1-9.39,14.28,84.23,84.23,0,0,1-14,12.7,103.82,103.82,0,0,1-17.43,10.17,105.14,105.14,0,0,1-19.56,6.78,86.57,86.57,0,0,1-20.27,2.44,150.09,150.09,0,0,1-17.12-1,130.33,130.33,0,0,1-17.51-3.23,106.66,106.66,0,0,1-16.33-5.6,57.52,57.52,0,0,1-13.57-8.2,39,39,0,0,1-9.31-11,27.43,27.43,0,0,1-3.47-13.72,21.38,21.38,0,0,1,1.66-8,29,29,0,0,1,6.07-8.76,83.47,83.47,0,0,1,12.07-10.1,200.23,200.23,0,0,1,19.8-12.07q-18-7.25-18-15.46a11.05,11.05,0,0,1,1.5-4.65,35.23,35.23,0,0,1,4.89-6.78,89.05,89.05,0,0,1,8.91-8.6A152.21,152.21,0,0,1,1972,322.3a64.62,64.62,0,0,1-16.09-6.63,49.92,49.92,0,0,1-12.38-10.1,43.89,43.89,0,0,1-8-13.09,42.46,42.46,0,0,1-2.84-15.62,44.7,44.7,0,0,1,5.68-21.85,60.4,60.4,0,0,1,15.14-18,74.85,74.85,0,0,1,22-12.15,77.22,77.22,0,0,1,26.27-4.5,67.06,67.06,0,0,1,37.39,11,144.17,144.17,0,0,0,24.85-5.21q11.12-3.47,17.59-5.84l4.42,5.84a31.52,31.52,0,0,1-1.5,4.1q-1,2.37-2.21,4.81t-2.52,4.89a36.53,36.53,0,0,1-2.76,4.34q-5.36.95-10.88,1.58t-12.15.95a51.65,51.65,0,0,1,5.13,11.44A42.06,42.06,0,0,1,2061,270.72Zm-54,107.74q-7.57-.95-14.2-2.21t-12.46-2.52a100.92,100.92,0,0,0-11.44,9,39.09,39.09,0,0,0-6.23,7.18,18.33,18.33,0,0,0-2.6,5.84,23.83,23.83,0,0,0-.55,5,15.81,15.81,0,0,0,3.86,10,34,34,0,0,0,10.65,8.44,64.83,64.83,0,0,0,16,5.76,88.65,88.65,0,0,0,20,2.13,50.57,50.57,0,0,0,16.09-2.29,32.79,32.79,0,0,0,11.28-6.23,25.56,25.56,0,0,0,6.7-9,26.12,26.12,0,0,0,2.21-10.57,13.88,13.88,0,0,0-1.42-6q-1.42-3-5.68-5.68a49.18,49.18,0,0,0-12-5A131.44,131.44,0,0,0,2007,378.46Zm17.67-101.28a51.63,51.63,0,0,0-2.13-15.07,36.8,36.8,0,0,0-6.23-12.23,30.1,30.1,0,0,0-10.17-8.28,30.86,30.86,0,0,0-14.12-3.08,19.82,19.82,0,0,0-8,1.81,22.17,22.17,0,0,0-7.41,5.44,28.75,28.75,0,0,0-5.44,9.15,35.86,35.86,0,0,0-2.13,12.94,57,57,0,0,0,1.89,14.91,34.39,34.39,0,0,0,5.92,12.23A29.11,29.11,0,0,0,1987,303.3a32.49,32.49,0,0,0,14.67,3.08,21.76,21.76,0,0,0,8.76-1.81,20.43,20.43,0,0,0,7.34-5.44,27.36,27.36,0,0,0,5-9.07A39.2,39.2,0,0,0,2024.7,277.19Z"/><path class="cls-1" d="M853.77,609.81v-8a51.31,51.31,0,0,0,11.2-3.33q3.77-1.8,3.77-3.33V483.33q-3.94.55-7.71,1t-7.27,1l-1.42-10.06q11.59-2.51,25.2-4.54a200.12,200.12,0,0,1,29.35-2,109.71,109.71,0,0,1,25.31,2.51q10.44,2.52,17.05,7a27.74,27.74,0,0,1,9.62,10.55,29,29,0,0,1,3,13.06,41,41,0,0,1-2.24,13.83,40,40,0,0,1-6.23,11.37,41.47,41.47,0,0,1-9.62,8.86A52.39,52.39,0,0,1,931.38,542l34.43,47.66a26.63,26.63,0,0,0,3.33,3.72,10.84,10.84,0,0,0,3.5,2.13,14.6,14.6,0,0,0,4.48.82,49.24,49.24,0,0,0,6.29-.22l1.64,8q-3.61,1.2-8.09,2.46t-8.91,2.35q-4.43,1.09-8.2,1.75a36.68,36.68,0,0,1-5.85.66,12.14,12.14,0,0,1-6.18-1.75,12.5,12.5,0,0,1-4.54-4.26l-31.37-59.58a21.76,21.76,0,0,1-2.19.11h-2.08q-2.84,0-5.68-.27a51.67,51.67,0,0,1-5.9-.93v50.5q0,1.31,3.55,3.22t11.53,3.44v8Zm48.32-129.43q-1.42,0-3,.06t-3.06.16v52a39.06,39.06,0,0,0,5.14.66q2.19.11,4.59.11,14.76,0,21.64-7.43t6.89-20.66a29.73,29.73,0,0,0-1.53-9.57,19.34,19.34,0,0,0-5.19-8,25.37,25.37,0,0,0-9.89-5.41A52.71,52.71,0,0,0,902.09,480.38Z"/><path class="cls-1" d="M1085.73,549.68a17.21,17.21,0,0,1-2.84,2.4,42.5,42.5,0,0,1-4,2.51q-2.19,1.2-4.43,2.3t-4,1.75h-51.71a57.74,57.74,0,0,0,2.13,14.48,36.41,36.41,0,0,0,5.41,11.42,25.11,25.11,0,0,0,8.47,7.49,23.7,23.7,0,0,0,11.42,2.68,55.75,55.75,0,0,0,6.61-.38,30,30,0,0,0,7-1.8,67.71,67.71,0,0,0,8.47-4,126.08,126.08,0,0,0,11.15-7.05,6.27,6.27,0,0,1,1.58,1.31,20.46,20.46,0,0,1,1.75,2.13q.82,1.15,1.48,2.13a15.8,15.8,0,0,1,.87,1.42A159.41,159.41,0,0,1,1071.52,601a62.17,62.17,0,0,1-11.53,7.49,42.38,42.38,0,0,1-11,3.66,68.05,68.05,0,0,1-12,1,42.26,42.26,0,0,1-17.55-3.72A43.47,43.47,0,0,1,1005,598.88a50.42,50.42,0,0,1-9.78-16.29,59.07,59.07,0,0,1-3.61-21.1A60.13,60.13,0,0,1,997.24,535a52.86,52.86,0,0,1,16.89-19.84,55.3,55.3,0,0,1,6.4-4,52.5,52.5,0,0,1,7.43-3.28,58,58,0,0,1,8-2.19,46.2,46.2,0,0,1,26.84,2.9,37,37,0,0,1,12.9,9.89,40.92,40.92,0,0,1,7.54,14.26A58,58,0,0,1,1085.73,549.68ZM1040.37,518a18.68,18.68,0,0,0-8.86,2,17.63,17.63,0,0,0-6.29,5.68,29.87,29.87,0,0,0-4,9,69.11,69.11,0,0,0-2.13,11.81h36.4q2.51,0,3.33-.82a4.44,4.44,0,0,0,.82-3.12,37.35,37.35,0,0,0-.87-7.49,25.87,25.87,0,0,0-3.12-8,20.75,20.75,0,0,0-6-6.4A15.72,15.72,0,0,0,1040.37,518Z"/><path class="cls-1" d="M1190.46,589a103.65,103.65,0,0,1-13.12,12.84,58.41,58.41,0,0,1-11.42,7.27,37.28,37.28,0,0,1-10.44,3.23,72.72,72.72,0,0,1-10.17.71,42.49,42.49,0,0,1-17.05-3.55,43.51,43.51,0,0,1-14.48-10.22A50,50,0,0,1,1103.72,583a59.2,59.2,0,0,1-3.77-21.75,55.8,55.8,0,0,1,4.37-22.08,54.3,54.3,0,0,1,12.19-17.87,57.8,57.8,0,0,1,18.64-12,63.24,63.24,0,0,1,32-3.83,72.72,72.72,0,0,1,8.91,1.75,56.25,56.25,0,0,1,8,2.73,16.62,16.62,0,0,1,5.52,3.55,12.15,12.15,0,0,1-.27,3.06q-.38,2.19-1.09,5t-1.69,6q-1,3.17-2,6t-2,5.14a22.24,22.24,0,0,1-1.64,3.28l-7.32-1.09q-3.61-10.71-8.85-16.56t-14-5.85a20.62,20.62,0,0,0-9.24,2.19,21.21,21.21,0,0,0-7.82,6.94,39,39,0,0,0-5.47,12.19,67.79,67.79,0,0,0-2.08,18,49.9,49.9,0,0,0,2.24,15.58,35,35,0,0,0,6.12,11.53,26.7,26.7,0,0,0,9.13,7.21,25.47,25.47,0,0,0,11.15,2.51,44,44,0,0,0,5.9-.38,27.65,27.65,0,0,0,6.23-1.69,51,51,0,0,0,7.6-3.83q4.21-2.51,10-6.78Z"/><path class="cls-1" d="M1290.48,509.68q.66.44.66,2.79a40.93,40.93,0,0,1-.49,5.74q-.49,3.39-1.37,7.54t-1.86,8.09q-1,3.93-2.08,7.32a56.67,56.67,0,0,1-2,5.36h-8a49.41,49.41,0,0,0-1.31-8.31,32.41,32.41,0,0,0-2.46-6.83,13.7,13.7,0,0,0-3.61-4.59,7.46,7.46,0,0,0-4.75-1.69,15.72,15.72,0,0,0-4.75.82,16.68,16.68,0,0,0-5.41,3.17,35.34,35.34,0,0,0-6,6.72,70.7,70.7,0,0,0-6.4,11.59v47.77q0,1.64,4.54,3.39t14.81,3.28v8h-60v-8q14.43-3.28,14.43-6.67V537.22q0-3.61-.22-6.07a34.73,34.73,0,0,0-.55-4,8.77,8.77,0,0,0-.82-2.4,10.9,10.9,0,0,0-.93-1.42,8.3,8.3,0,0,0-1.58-1.26,8,8,0,0,0-2.08-.82,19.58,19.58,0,0,0-3.23-.49l-5-.38v-7.65q6-.87,10.44-1.64t8.25-1.64q3.82-.87,7.49-2t8.25-2.62l4.59,4.59,1.42,15.85a57.76,57.76,0,0,1,6.67-8,51.14,51.14,0,0,1,7.92-6.5,38.91,38.91,0,0,1,8.8-4.37,28.34,28.34,0,0,1,9.29-1.58,32.58,32.58,0,0,1,8.69,1.26A37.8,37.8,0,0,1,1290.48,509.68Z"/><path class="cls-1" d="M1419.25,597.56q-4,2.62-8.91,5.36t-9.4,5q-4.54,2.3-8.09,3.72a16.49,16.49,0,0,1-4.86,1.42,10.22,10.22,0,0,1-3.77-.71,8.3,8.3,0,0,1-3.39-2.73,18.84,18.84,0,0,1-2.79-5.58,45.76,45.76,0,0,1-1.86-9.13A116.15,116.15,0,0,1,1364,604.4a70.41,70.41,0,0,1-9.84,5.52,33.51,33.51,0,0,1-8.14,2.57,45.27,45.27,0,0,1-7.21.6,36.08,36.08,0,0,1-10.06-1.42,21.18,21.18,0,0,1-8.86-5.19,26.82,26.82,0,0,1-6.34-10.33q-2.41-6.56-2.4-16.83V534.49q0-5.25-.16-8.14a7.26,7.26,0,0,0-1.42-4.37,6.77,6.77,0,0,0-3.94-2q-2.68-.55-7.71-1.09v-7.65q5.47-.44,10-1t8.69-1.26q4.15-.71,8.25-1.69t8.69-2.41l3.83,5v62.53a60.45,60.45,0,0,0,.82,11,17.35,17.35,0,0,0,2.46,6.61,8.43,8.43,0,0,0,4,3.23,15.46,15.46,0,0,0,5.41.87,24.91,24.91,0,0,0,5-.55,27.72,27.72,0,0,0,5.9-2,51.17,51.17,0,0,0,7-4,80,80,0,0,0,8.25-6.45V534.49a64.12,64.12,0,0,0-.38-7.87A8.55,8.55,0,0,0,1374,522a7.82,7.82,0,0,0-4.32-2.3,47,47,0,0,0-7.93-.87v-7.65q10.93-1,19.84-2.68t16.78-3.66l4,5v68.87q0,3.39.11,5.63a28.43,28.43,0,0,0,.38,3.72,7.69,7.69,0,0,0,.77,2.35,4.31,4.31,0,0,0,1.26,1.42,4.74,4.74,0,0,0,3.66.38,49.33,49.33,0,0,0,7.93-2.9Z"/><path class="cls-1" d="M1427.12,609.81v-8a45.29,45.29,0,0,0,10.93-3.33q3.5-1.8,3.5-3.33V539q0-5.58-.11-9a10.34,10.34,0,0,0-1.37-5.36,7.27,7.27,0,0,0-4.21-2.79,49.5,49.5,0,0,0-8.75-1.42v-7.65q9.4-1.31,17.82-3.22a128.29,128.29,0,0,0,15.85-4.65h7v90.29q0,1.31,3.28,3.22t11.26,3.44v8ZM1471.94,472a15.76,15.76,0,0,1-5.3,12,17.59,17.59,0,0,1-5.79,3.39,21.25,21.25,0,0,1-7.27,1.2,22.89,22.89,0,0,1-5.79-.71,13.31,13.31,0,0,1-4.75-2.24,11.45,11.45,0,0,1-3.22-3.77,11.28,11.28,0,0,1-1.2-5.41,15.9,15.9,0,0,1,1.42-6.78,15.31,15.31,0,0,1,3.88-5.19,18.17,18.17,0,0,1,5.79-3.33,21,21,0,0,1,7.16-1.2,22.56,22.56,0,0,1,5.69.71,14.56,14.56,0,0,1,4.81,2.19,11.27,11.27,0,0,1,3.33,3.72A10.92,10.92,0,0,1,1471.94,472Z"/><path class="cls-1" d="M1567.92,592.86q-14.54,10.49-24.6,15.36t-15.85,4.86a22.38,22.38,0,0,1-8.91-1.8,19.5,19.5,0,0,1-7.32-5.52,28,28,0,0,1-5-9.35,42.45,42.45,0,0,1-1.86-13.28V521.81h-13.23l-3.17-3.94,8.53-9.73h7.87V485.3L1526.49,469l4.15,3.61v35.53H1564l3.94,3.94a32.11,32.11,0,0,1-2.46,3.88q-1.48,2-3,3.94t-3,3.44a18.46,18.46,0,0,1-2.57,2.3,24.69,24.69,0,0,0-3.33-1.31q-2-.66-4.54-1.26a45.84,45.84,0,0,0-5.3-.93,49,49,0,0,0-5.74-.33h-7.32V573a57.91,57.91,0,0,0,.66,9.46,20.62,20.62,0,0,0,1.91,6.23,8.54,8.54,0,0,0,3,3.39,7.06,7.06,0,0,0,3.77,1,23.14,23.14,0,0,0,4.1-.38,38.35,38.35,0,0,0,4.86-1.26,55.34,55.34,0,0,0,6.18-2.46q3.44-1.58,8-4.1Z"/><path class="cls-1" d="M1702.48,609.81v-8a59.36,59.36,0,0,0,6.39-1.91,27.27,27.27,0,0,0,3.88-1.75,6,6,0,0,0,1.91-1.53,2.55,2.55,0,0,0,.49-1.48V543.89a64.46,64.46,0,0,0-.71-10.71,16.62,16.62,0,0,0-2.08-6.12,6.39,6.39,0,0,0-3.55-2.73,18,18,0,0,0-5.14-.66q-4.81,0-11.26,3.39a60.4,60.4,0,0,0-13.55,10.28v57.83a2.38,2.38,0,0,0,.55,1.48,6.1,6.1,0,0,0,2,1.48,31.5,31.5,0,0,0,4.21,1.69q2.73.93,7,2v8h-52.8v-8a63.63,63.63,0,0,0,6.45-1.91,23.94,23.94,0,0,0,3.88-1.75,7,7,0,0,0,1.91-1.53,2.39,2.39,0,0,0,.55-1.48V543.89a83.51,83.51,0,0,0-.55-10.71,16.38,16.38,0,0,0-1.8-6.12,6,6,0,0,0-3.28-2.73,16.75,16.75,0,0,0-5.08-.66q-4.92,0-11.26,3.28a75.29,75.29,0,0,0-14.43,10.38v57.83q0,1.64,3.28,3.39a42.45,42.45,0,0,0,10.38,3.28v8h-54.33v-8a89.85,89.85,0,0,0,10.82-3.33q3.61-1.47,3.61-3.33V534.49a67.62,67.62,0,0,0-.27-6.89,6.26,6.26,0,0,0-1.64-3.88,8.7,8.7,0,0,0-4.32-2q-3-.66-8.2-1.31v-7.65q5.68-.66,10.28-1.42t8.69-1.75q4.1-1,7.82-2.13t7.65-2.57l4.59,4.59,1.2,13.55a122.74,122.74,0,0,1,11.31-8.91,61.46,61.46,0,0,1,9.78-5.58,40.73,40.73,0,0,1,16.83-3.66,30.14,30.14,0,0,1,9.29,1.31,22,22,0,0,1,6.89,3.55,18.53,18.53,0,0,1,4.59,5.25,20.3,20.3,0,0,1,2.4,6.5l.33,1.53a111.65,111.65,0,0,1,11.37-8.85,68.25,68.25,0,0,1,9.89-5.57,41.35,41.35,0,0,1,8.8-2.9,42.2,42.2,0,0,1,8.2-.82,33,33,0,0,1,9.95,1.48,21.18,21.18,0,0,1,8.25,4.81,23.23,23.23,0,0,1,5.63,8.69,36.11,36.11,0,0,1,2.08,13v62.31q0,1.53,3.39,3a89.11,89.11,0,0,0,12,3.66v8Z"/><path class="cls-1" d="M1860.44,549.68a17.21,17.21,0,0,1-2.84,2.4,42.5,42.5,0,0,1-4,2.51q-2.19,1.2-4.43,2.3t-4,1.75h-51.71a57.74,57.74,0,0,0,2.13,14.48,36.41,36.41,0,0,0,5.41,11.42,25.11,25.11,0,0,0,8.47,7.49,23.7,23.7,0,0,0,11.42,2.68,55.75,55.75,0,0,0,6.61-.38,30,30,0,0,0,7-1.8,67.71,67.71,0,0,0,8.47-4,126.08,126.08,0,0,0,11.15-7.05,6.27,6.27,0,0,1,1.58,1.31,20.46,20.46,0,0,1,1.75,2.13q.82,1.15,1.48,2.13a15.8,15.8,0,0,1,.87,1.42A159.41,159.41,0,0,1,1846.23,601a62.17,62.17,0,0,1-11.53,7.49,42.38,42.38,0,0,1-11,3.66,68.05,68.05,0,0,1-12,1,42.26,42.26,0,0,1-17.55-3.72,43.47,43.47,0,0,1-14.43-10.49,50.42,50.42,0,0,1-9.78-16.29,59.07,59.07,0,0,1-3.61-21.1A60.13,60.13,0,0,1,1772,535a52.86,52.86,0,0,1,16.89-19.84,55.3,55.3,0,0,1,6.4-4,52.5,52.5,0,0,1,7.43-3.28,58,58,0,0,1,8-2.19,46.2,46.2,0,0,1,26.84,2.9,37,37,0,0,1,12.9,9.89,40.92,40.92,0,0,1,7.54,14.26A58,58,0,0,1,1860.44,549.68ZM1815.08,518a18.68,18.68,0,0,0-8.86,2,17.63,17.63,0,0,0-6.29,5.68,29.87,29.87,0,0,0-4,9,69.11,69.11,0,0,0-2.13,11.81h36.4q2.51,0,3.33-.82a4.44,4.44,0,0,0,.82-3.12,37.35,37.35,0,0,0-.87-7.49,25.87,25.87,0,0,0-3.12-8,20.75,20.75,0,0,0-6-6.4A15.72,15.72,0,0,0,1815.08,518Z"/><path class="cls-1" d="M1940,609.81v-8a73.89,73.89,0,0,0,11.15-3.61q3.28-1.53,3.28-3.06V545.53a69.12,69.12,0,0,0-.6-10,19.58,19.58,0,0,0-1.91-6.39,7.48,7.48,0,0,0-3.5-3.39,13.34,13.34,0,0,0-5.47-1,23.91,23.91,0,0,0-5.57.71,33.73,33.73,0,0,0-6.5,2.4,60,60,0,0,0-7.87,4.65,114.48,114.48,0,0,0-9.57,7.43v55.2q0,1.64,3.72,3.39a52.54,52.54,0,0,0,10.82,3.28v8h-55.2v-8a89.85,89.85,0,0,0,10.82-3.33q3.61-1.47,3.61-3.33V534.49q0-4.26-.16-6.78a6.21,6.21,0,0,0-1.48-3.94,8.07,8.07,0,0,0-4.26-2.08q-3-.66-8.53-1.31v-7.65q5.25-.54,9.78-1.31t8.69-1.69q4.15-.93,8.09-2.13t7.87-2.73l4.59,4.59,1.2,15.74q12.79-10.93,23.88-15.63t19.62-4.7a28.17,28.17,0,0,1,9.07,1.48,19.68,19.68,0,0,1,7.71,4.81,24.19,24.19,0,0,1,5.36,8.69,37,37,0,0,1,2,13v62.31a2.17,2.17,0,0,0,.66,1.48,7.48,7.48,0,0,0,2.3,1.48,41.25,41.25,0,0,0,4.48,1.69q2.84.93,7.11,2v8Z"/><path class="cls-1" d="M2078.08,592.86q-14.54,10.49-24.6,15.36t-15.85,4.86a22.38,22.38,0,0,1-8.91-1.8,19.5,19.5,0,0,1-7.32-5.52,28,28,0,0,1-5-9.35,42.45,42.45,0,0,1-1.86-13.28V521.81h-13.23l-3.17-3.94,8.53-9.73h7.87V485.3L2036.65,469l4.15,3.61v35.53h33.34l3.94,3.94a32.11,32.11,0,0,1-2.46,3.88q-1.48,2-3,3.94t-3,3.44a18.46,18.46,0,0,1-2.57,2.3,24.69,24.69,0,0,0-3.33-1.31q-2-.66-4.54-1.26a45.84,45.84,0,0,0-5.3-.93,49,49,0,0,0-5.74-.33h-7.32V573a57.91,57.91,0,0,0,.66,9.46,20.62,20.62,0,0,0,1.91,6.23,8.54,8.54,0,0,0,3,3.39,7.06,7.06,0,0,0,3.77,1,23.14,23.14,0,0,0,4.1-.38,38.35,38.35,0,0,0,4.86-1.26,55.34,55.34,0,0,0,6.18-2.46q3.44-1.58,8-4.1Z"/><line class="cls-6" x1="735.54" x2="735.54" y2="747.83"/></g></g></svg>