<svg xmlns="http://www.w3.org/2000/svg" viewBox="0 0 810.67 270.58"><defs><style>.cls-1,.cls-6{fill:#fff;}.cls-2,.cls-3,.cls-4,.cls-5{fill:none;}.cls-2,.cls-4,.cls-5{stroke:#fff;}.cls-10,.cls-2,.cls-4,.cls-5{stroke-miterlimit:10;}.cls-4{stroke-width:17px;}.cls-5{stroke-width:7px;}.cls-6{font-size:116.41px;font-family:GentiumBasic-Bold, Gentium Basic;font-weight:700;}.cls-7{font-size:143.94px;}.cls-8{font-size:83.81px;}.cls-9{font-size:91.69px;}.cls-10{fill:#f90808;stroke:#c12c27;stroke-width:13px;}</style></defs><title>theLogo2</title><g id="Layer_2" data-name="Layer 2"><g id="Layer_11" data-name="Layer 11"><path class="cls-1" d="M140.45,125.52a3.85,3.85,0,0,1-.48,0,5.15,5.15,0,0,1-2.21-1.52c-.32-.34-.69-1-.6-3a13.34,13.34,0,0,0-.43-3.6,5.54,5.54,0,0,1-.18-1.07,2.25,2.25,0,0,1,.65-1.47,1,1,0,0,1,.45-.08l.31,0h.38c.09,0,.69,0,1.23,0H140l0,0h.17a1.18,1.18,0,0,0,.5-.14l.16-.08.07-.16.21-.17a17.25,17.25,0,0,0,2-1.74,44.71,44.71,0,0,0,3.68-5.09,11,11,0,0,1,4.08-3.19l.9-.51c1.45-.86,2.19-2.31,3.13-4.16l.61-1.19a9.66,9.66,0,0,1,2.38-3,7.27,7.27,0,0,0,.93-.94,7.53,7.53,0,0,0,.87-3,10.77,10.77,0,0,1,.52-2.25c.5-1.11,3-3.05,3.26-3.23l.23-.07.1,0,.08-.06a4.08,4.08,0,0,0,1.2-1.58c.18-.45.44-1.42.79-2.78s.76-2.91,1.22-4.41a52.65,52.65,0,0,1,2.07-5.54l.54-1.2-1.2.54c-.09,0-.3,0-.65-.1a5.58,5.58,0,0,1-1.16-.3l-.12,0h-.13c-.21,0-.39.16-.61.47s-2.83,2.44-3.53,3a7.57,7.57,0,0,0-2.11,2.58,6.79,6.79,0,0,1-1,1.37,1.66,1.66,0,0,0-.48.75,3.43,3.43,0,0,0,0,.92,5.41,5.41,0,0,1,0,.84,3.19,3.19,0,0,1-.3.82,3.12,3.12,0,0,0-.35,1.09h-.25c-.18,0-.3,0-1.1.86-.15.16-.33.39-.52.63l-.14.17.31-1.27-1.28,1.64-.33-.06a6.1,6.1,0,0,1,.14-.66l.1-.39-.25-.13a6.9,6.9,0,0,1,.24-.73,1.77,1.77,0,0,1,.15-.33,1.33,1.33,0,0,0,.13-.29c0-.07.1-.2.19-.35a3,3,0,0,0,.35-.74.82.82,0,0,1,0-.14,2.47,2.47,0,0,0,.17-.58,1.36,1.36,0,0,1,.18-.44c.09-.16.19-.36.32-.65a4.17,4.17,0,0,1,1-1.07,2.28,2.28,0,0,0,.49-.51c.08-.14.41-.87,1.21-2.62l1.07-2.35a13.07,13.07,0,0,1,3-3.68,1.45,1.45,0,0,0,.19-.22,1.42,1.42,0,0,1,.58-.49,2.49,2.49,0,0,1,.9-.1,4,4,0,0,0,1.15-.12l.81-.28a7.57,7.57,0,0,1,.93-.3H168a6.87,6.87,0,0,0,.94-.11l.83-.13a13.15,13.15,0,0,1,1.7-.09c.48,0,.86,0,.94,0h0a1.67,1.67,0,0,0,.66-.19,5,5,0,0,1,.87-.3h.26l.17-.22a11.94,11.94,0,0,0,.87-1.62,3.47,3.47,0,0,0,.13-1.8,7.76,7.76,0,0,1-.06-.84v-.36c0-.94,0-2.23.74-3A4.23,4.23,0,0,1,179,57.3a3.6,3.6,0,0,1,3.32,1.95,2.42,2.42,0,0,1,.24.94,5.34,5.34,0,0,0,.1.66,3.93,3.93,0,0,0,.27.75,1.09,1.09,0,0,1,.15.49.33.33,0,0,1-.11.25.76.76,0,0,0-.19.31,2.59,2.59,0,0,0,.34,1.51c.09.17.19.35.25.47a.83.83,0,0,0-.39.21.6.6,0,0,0-.46.42,1,1,0,0,0,0,.51v0a.54.54,0,0,0-.12.46,1.31,1.31,0,0,0-.4.3,1.4,1.4,0,0,0-.26.57.91.91,0,0,1-.1.27h0a.81.81,0,0,1-.28,0,3.9,3.9,0,0,1-1.09-.18,1.37,1.37,0,0,0-.46-.09c-.45,0-.8.26-1.36.82a4.1,4.1,0,0,0-1.25,2.13,4.63,4.63,0,0,0,.27,1.43c.09.32.19.7.3,1.16a5.19,5.19,0,0,1,0,2.31,1.27,1.27,0,0,0,0,.21c0,.18.07.29.23.52a6.31,6.31,0,0,1,.89,1.78,6.06,6.06,0,0,1-.11,2.56l-.29,1.09,1-.52a2.71,2.71,0,0,1,1-.18h0l.59,0,.56,0a3.1,3.1,0,0,0,1.37-.27c.72-.35,3.81-2.19,4.08-2.44s.28-.48.43-1.09a7.23,7.23,0,0,1,.33-1.07,3.1,3.1,0,0,1,.59-.8,3.14,3.14,0,0,0,.48-.62,2.75,2.75,0,0,0,.12-.25h.26a.43.43,0,0,0,.31-.1.77.77,0,0,0-.06.57.69.69,0,0,0,.36.42l.11.05h.15c.34,0,.6-.26,1-.77l.55.57c-.64.61-.73.71-.79.84l-.13.25.13.31.15.24h.28l-.07.06a7.06,7.06,0,0,0-.49.59l-.5.63A5.2,5.2,0,0,1,188.23,79c-.64.18-1,.46-2.54,1.95s-7.54,4.61-7.94,4.77c-.11,0-.38-.33-.66-.67-.72-.88-1.5-2-1.5-2l-.35-.51-.43.45a7.13,7.13,0,0,0-1.35,2.13c-.42,1.09-1.15,2.48-1.16,2.49l-.24.46.46.22a17.53,17.53,0,0,0,3,1,26.71,26.71,0,0,1,6.59,3,7.93,7.93,0,0,1,3.34,3.52,5.44,5.44,0,0,1-1.08,2.36,13.27,13.27,0,0,1-1.9,1.79c-.33.27-.66.55-1,.85a35,35,0,0,1-4.27,3.09,15.2,15.2,0,0,0-3.72,3.62l-.17-.11-.66,1.08.52.45c0,.07,0,.19-.06.28l0,.18a4.36,4.36,0,0,0,0,1.44c0,.1,0,.19,0,.24a3.07,3.07,0,0,0,1.18,1.88,12,12,0,0,1,1.43,1.55c.21.26.24.3.33.35s.08.14.1.2a.83.83,0,0,0,.17.35,1.2,1.2,0,0,1-.37.28,1.16,1.16,0,0,1-.5.07,5.33,5.33,0,0,1-1.9-.42,8.4,8.4,0,0,1-2.25-1.8c-.32-.32-.64-.63-.94-.9-.54-.48-1.49-1.13-2.32-1.7a17.53,17.53,0,0,1-1.46-1.07.89.89,0,0,1,0-.9,2.06,2.06,0,0,1,.7-.54,3.31,3.31,0,0,0,.33-.2l.52-.43c.27-.23.75-.64,1-.78a.64.64,0,0,0,.24,0,1.3,1.3,0,0,0,.59-.24h0c.22,0,.26,0,1-.61l.12-.09.05-.14a.83.83,0,0,0,0-.1l.13-.1.47-.38c.61-.51,2.69-2.83,2.78-2.93a6.6,6.6,0,0,0,.94-1.42l.29-.5a18.93,18.93,0,0,1,3.12-3.26l.5-.42-.54-.37a3.85,3.85,0,0,0-1.92-.31l-1.59,0c-.87,0-1.83-.06-2.92-.06h-.45a9,9,0,0,1-2.9-.5,1.93,1.93,0,0,0-.55-.13h-.1l-.12,0a35.79,35.79,0,0,0-4.89,4.3,42.94,42.94,0,0,1-5.29,4.39l-.86.64a7.11,7.11,0,0,0-1.08,1c-.21.23-.49.53-1.15,1.13a9.15,9.15,0,0,1-2.4,1.41,10.89,10.89,0,0,0-2.87,1.72,36.76,36.76,0,0,1-4.34,3.38,7.34,7.34,0,0,0-2.17,2.73,4.93,4.93,0,0,1-.28.5,3,3,0,0,1-.48.49,1.73,1.73,0,0,0-.4.43,8.24,8.24,0,0,0-.42,1.17l0,.11,0,.15a1.8,1.8,0,0,0,.13.32l-.06.1c0,.08-.1.18-.16.29a2.48,2.48,0,0,1-.37.48,3.29,3.29,0,0,0-.36.45,7,7,0,0,0-.3,2.53,5.07,5.07,0,0,0,.81,1.85l.12.14a.93.93,0,0,0-.06.14A1.45,1.45,0,0,1,140.45,125.52Z"/><path class="cls-1" d="M179,57.8a3.12,3.12,0,0,1,2.88,1.67,2,2,0,0,1,.19.77,5.71,5.71,0,0,0,.11.72,4.45,4.45,0,0,0,.3.84c0,.08.08.18.1.24a1.22,1.22,0,0,0-.27.49,3,3,0,0,0,.38,1.87h0a1.13,1.13,0,0,0-.64.71,1.34,1.34,0,0,0,0,.59,1,1,0,0,0-.09.28,1.69,1.69,0,0,0-.28.26,1.75,1.75,0,0,0-.35.69,3.48,3.48,0,0,1-.83-.15,1.85,1.85,0,0,0-.63-.12,2.53,2.53,0,0,0-1.71,1,4.53,4.53,0,0,0-1.4,2.45,4.81,4.81,0,0,0,.29,1.61c.09.31.19.69.3,1.14a4.72,4.72,0,0,1,0,2.09,1.72,1.72,0,0,0,0,.31,1.34,1.34,0,0,0,.31.8,5.86,5.86,0,0,1,.82,1.64,5.4,5.4,0,0,1-.11,2.3l-.61,2.2,2-1a2.33,2.33,0,0,1,.82-.14h.08l.51,0,.59,0a3.61,3.61,0,0,0,1.59-.32,48.93,48.93,0,0,0,4.2-2.52,2.54,2.54,0,0,0,.58-1.33,7,7,0,0,1,.3-1,2.68,2.68,0,0,1,.5-.66c.12-.13.23-.25.34-.4a1.18,1.18,0,0,0,.53.52l.24.11h.24a1.13,1.13,0,0,0,.31,0,1.07,1.07,0,0,0,.05,1l.07.11-.16.21-.51.64a4.75,4.75,0,0,1-1.88,1.22c-.77.22-1.29.61-2.76,2.08-1.16,1.16-6.18,3.87-7.52,4.54l-.36-.43c-.68-.83-1.44-2-1.45-2l-.69-1-.86.89A7.68,7.68,0,0,0,173,84.93c-.41,1.06-1.12,2.43-1.13,2.44l-.48.91.93.45a18,18,0,0,0,3,1,26.24,26.24,0,0,1,6.46,3,7.87,7.87,0,0,1,3.07,3.13,5.1,5.1,0,0,1-1,2,12.68,12.68,0,0,1-1.84,1.72c-.33.27-.67.55-1,.86a34.61,34.61,0,0,1-4.22,3.05,15.65,15.65,0,0,0-3.57,3.37l-.21-.14-.53.87-.17.28-.44.73.61.53,0,.17a4.64,4.64,0,0,0,0,1.63c0,.09,0,.16,0,.2a3.57,3.57,0,0,0,1.36,2.24,11.71,11.71,0,0,1,1.34,1.47,3.45,3.45,0,0,0,.32.37l0,0h-.23a4.8,4.8,0,0,1-1.71-.38,8.3,8.3,0,0,1-2.09-1.7c-.32-.31-.65-.64-1-.92-.57-.5-1.52-1.16-2.36-1.74-.49-.34-1.15-.8-1.36-1a.46.46,0,0,1,0-.3,1.72,1.72,0,0,1,.54-.39,3.75,3.75,0,0,0,.39-.24l.55-.45.74-.62h.24a1.55,1.55,0,0,0,.63-.25h0c.25,0,.36-.11,1.16-.69l.24-.18.1-.26h0l.49-.39c.65-.54,2.74-2.88,2.83-3a7.07,7.07,0,0,0,1-1.51l.28-.5a18.27,18.27,0,0,1,3-3.12l1-.85L179,96.07a4.44,4.44,0,0,0-2.2-.39l-1.57,0c-.86,0-1.84-.06-2.93-.06h-.52a8.41,8.41,0,0,1-2.68-.47,2.24,2.24,0,0,0-.71-.16h-.22L168,95A34.13,34.13,0,0,0,163,99.45a42.57,42.57,0,0,1-5.22,4.33l-.86.65a7.65,7.65,0,0,0-1.14,1c-.21.23-.48.51-1.12,1.1a8.81,8.81,0,0,1-2.27,1.33,11.46,11.46,0,0,0-3,1.81,36.08,36.08,0,0,1-4.28,3.33,7.76,7.76,0,0,0-2.33,2.91c-.09.17-.2.38-.25.44a2.44,2.44,0,0,1-.4.41,2.18,2.18,0,0,0-.51.56,7.74,7.74,0,0,0-.47,1.28l-.08.26.07.26a1.41,1.41,0,0,0,.05.17l-.1.2a2.3,2.3,0,0,1-.3.37,3.61,3.61,0,0,0-.41.53,7.29,7.29,0,0,0-.37,2.86,6,6,0,0,0,.67,1.74h-.2l-.42,0a4.92,4.92,0,0,1-1.91-1.37c-.15-.16-.55-.57-.46-2.65a13.75,13.75,0,0,0-.44-3.73,6.77,6.77,0,0,1-.17-.92,2.14,2.14,0,0,1,.39-1.06.82.82,0,0,1,.2,0h.53l.21,0c.14,0,.7,0,1.18,0H140a1.17,1.17,0,0,0,.26,0,1.66,1.66,0,0,0,.73-.19l.31-.16.1-.22.11-.08a17.88,17.88,0,0,0,2.07-1.78,45.18,45.18,0,0,0,3.74-5.17,10.64,10.64,0,0,1,3.91-3l.91-.52c1.58-.93,2.35-2.45,3.32-4.37.19-.37.39-.76.6-1.18a9.12,9.12,0,0,1,2.27-2.83,7.62,7.62,0,0,0,1-1,7.75,7.75,0,0,0,1-3.22,10.6,10.6,0,0,1,.48-2.13,13.41,13.41,0,0,1,3-3l.12,0,.2,0,.17-.13a4.55,4.55,0,0,0,1.36-1.79c.2-.48.45-1.47.81-2.84s.76-2.9,1.21-4.39a52.28,52.28,0,0,1,2.05-5.48l1.08-2.39-2.23,1c-.09,0-.26,0-.54-.06a5.16,5.16,0,0,1-1-.26h0l-.24-.1-.26,0a1.39,1.39,0,0,0-.93.64c-.34.35-2.72,2.35-3.45,2.91a8.11,8.11,0,0,0-2.24,2.73,6.32,6.32,0,0,1-.94,1.28,2.09,2.09,0,0,0-.6,1,3.78,3.78,0,0,0,0,1.06,5,5,0,0,1,0,.76,3.25,3.25,0,0,1-.25.67,5.56,5.56,0,0,0-.32.81,1,1,0,0,0-.47.21l.55-1.9-2.2,2.83-.18-.1.11-.32a1.25,1.25,0,0,1,.12-.25,1.66,1.66,0,0,0,.16-.34c0-.07.1-.18.16-.3a3.25,3.25,0,0,0,.4-.87l0-.08a3,3,0,0,0,.2-.7,1.19,1.19,0,0,1,.13-.28c.09-.17.2-.38.34-.68a4.27,4.27,0,0,1,.85-.89,2.63,2.63,0,0,0,.6-.63c.09-.15.34-.7,1.21-2.62l1.09-2.39a12.6,12.6,0,0,1,2.89-3.53,1.75,1.75,0,0,0,.25-.28.93.93,0,0,1,.39-.34,2.62,2.62,0,0,1,.7-.06,4.44,4.44,0,0,0,1.3-.15l.83-.29c.25-.09.61-.22.77-.27H168a7,7,0,0,0,1-.12l.82-.13a12.5,12.5,0,0,1,1.63-.09l.85,0h.15a2.09,2.09,0,0,0,.81-.23,6.87,6.87,0,0,1,.71-.26l.52,0,.31-.48a12.52,12.52,0,0,0,.91-1.7,3.93,3.93,0,0,0,.17-2,7.25,7.25,0,0,1-.06-.79c0-.11,0-.24,0-.37,0-.85,0-2,.59-2.59a3.73,3.73,0,0,1,2.54-1m0-1A4.75,4.75,0,0,0,175.77,58c-1.07,1-.89,2.75-.89,3.69a6.36,6.36,0,0,1,0,2.45,11.55,11.55,0,0,1-.83,1.55h0a10.93,10.93,0,0,0-1.48.49h0c-.05,0-.47,0-1,0a13.61,13.61,0,0,0-1.78.1c-.91.13-1.42.24-1.69.24h-.14a16.27,16.27,0,0,0-1.87.61c-.66.2-1.54,0-2.12.25a2.34,2.34,0,0,0-.88.77A13.6,13.6,0,0,0,159.89,72c-.89,1.95-2.14,4.71-2.26,4.93s-1.19.94-1.49,1.62a6,6,0,0,0-.54,1.22,5.46,5.46,0,0,1-.21.71c0,.2-.46.84-.52,1s-.13.2-.28.6a5.27,5.27,0,0,0-.29,1,.35.35,0,0,0,.19.31,5.28,5.28,0,0,0-.16.89.34.34,0,0,0,.23.35.49.49,0,0,0,0,.43.31.31,0,0,0,.26.11.43.43,0,0,0,.31-.11l.25-.31a.25.25,0,0,0,.18.33h0c.28,0,1.11-1.19,1.56-1.67a4.29,4.29,0,0,1,.73-.7h0a1,1,0,0,0,.56.57l.21,0c.25,0,.45-.12.4-.25s-.39-.26-.42-.77.58-1.32.64-1.95-.09-1.32,0-1.7.67-.63,1.44-2a7.14,7.14,0,0,1,2-2.43c.67-.52,3.44-2.82,3.63-3.08s.26-.27.26-.27a5.91,5.91,0,0,0,1.27.33,5.15,5.15,0,0,0,.76.08.52.52,0,0,0,.17,0,52.82,52.82,0,0,0-2.1,5.6c-.91,3-1.65,6.3-2,7.14a3.57,3.57,0,0,1-1,1.37,1.73,1.73,0,0,0-.39.14c-.13.08-2.86,2.15-3.44,3.44s-.61,4.21-1.33,5.15-2.07,1.54-3.36,4-1.95,4.21-3.55,5.15-3.92,2-5.15,3.86a44.5,44.5,0,0,1-3.63,5,22,22,0,0,1-2.22,1.89.77.77,0,0,0-.1.16.76.76,0,0,1-.27.08h-.06a3.68,3.68,0,0,0-.59,0c-.53,0-1.23,0-1.33,0h-.06c-.11,0-.31,0-.53,0a1.54,1.54,0,0,0-.66.13,2.57,2.57,0,0,0-.93,1.89c0,.71.71,2.51.61,4.68s.3,2.94.74,3.39a5.7,5.7,0,0,0,2.51,1.66,4.45,4.45,0,0,0,.54,0c.67,0,1.22-.17,1.36-.51s.11-.5-.16-.8a4.69,4.69,0,0,1-.69-1.59,7.33,7.33,0,0,1,.24-2.2,11.13,11.13,0,0,0,.75-1c.19-.38.36-.52.25-.75a2.25,2.25,0,0,1-.13-.3,9.19,9.19,0,0,1,.38-1.07c.13-.22.5-.41.85-.88s1-2.23,2.32-3.11a37,37,0,0,0,4.4-3.42c1.63-1.48,3.8-1.79,5.27-3.14a27.76,27.76,0,0,1,2.2-2.07,53.42,53.42,0,0,0,6.2-5.09A39,39,0,0,1,168.4,96h0a11.75,11.75,0,0,0,3.39.63h.52c1.79,0,3.25.08,4.49.1a3.66,3.66,0,0,1,1.65.22,20.26,20.26,0,0,0-3.23,3.39,8.9,8.9,0,0,1-1.16,1.84c-.39.44-2.2,2.44-2.72,2.88s-.75.57-.75.65a.45.45,0,0,1,0,.14s-.69.5-.74.51h-.12a.21.21,0,0,0-.15.05.93.93,0,0,1-.35.2h0c-.05,0-.13-.07-.25-.07a.37.37,0,0,0-.14,0c-.21.09-1.37,1.11-1.62,1.3a3.82,3.82,0,0,0-1.15.86,1.37,1.37,0,0,0,.06,1.49c.25.35,2.83,1.95,3.85,2.84s2.17,2.31,3.34,2.79a5.77,5.77,0,0,0,2.09.46,1.69,1.69,0,0,0,.73-.13c.46-.24.78-.62.66-.85s-.16-.17-.2-.35a1.24,1.24,0,0,0-.31-.49,17,17,0,0,0-1.71-1.88,2.63,2.63,0,0,1-1-1.52,5.75,5.75,0,0,1-.08-1.54c.11-.47.2-.72,0-.88l-.28-.25.17-.28a.22.22,0,0,0,.11,0,.2.2,0,0,0,.18-.12,14.65,14.65,0,0,1,3.72-3.69,35.19,35.19,0,0,0,4.33-3.14,24.91,24.91,0,0,0,3-2.7,5.64,5.64,0,0,0,1.19-2.72,7.84,7.84,0,0,0-3.58-3.91,27.51,27.51,0,0,0-6.72-3.06,17.14,17.14,0,0,1-2.86-.94s.74-1.41,1.18-2.54a6.65,6.65,0,0,1,1.24-2s.78,1.16,1.51,2c.55.67.75.91,1,.91a.7.7,0,0,0,.26-.06c.42-.17,6.63-3.41,8.1-4.88s1.82-1.68,2.32-1.82A5.69,5.69,0,0,0,190.75,78c.64-.8.8-1,1-1.18a14.11,14.11,0,0,0,1.36-1.23c.43-.51.57-.69.43-.89s-.13-.18-.21-.18a.54.54,0,0,0-.27.12c-.27.19-1,.89-1.27,1.1a.58.58,0,0,1-.29.17s-.05,0,0-.09,1.49-1.43,1.82-1.83.46-.63.3-.79-.14-.13-.2-.13a.5.5,0,0,0-.26.13c-.24.18-1.55,1.25-1.55,1.25a18.45,18.45,0,0,0,1.34-1.65c.16-.32,0-.66-.27-.66h0c-.26,0-1.13,1-1.48,1.4s-.73.92-.91.92h0a.22.22,0,0,1-.06-.33c0-.08.88-1.71,1.15-2.29s.19-.85,0-.89h0c-.2,0-.35.39-.73.82s-1.06,1.76-1.11,1.76h0c0-.11.09-.72-.22-.8H189c-.23,0-.29.23-.29.47a1.45,1.45,0,0,1-.2.86c-.22.41-.78.78-1.08,1.44s-.46,1.82-.64,2-3.2,2-4,2.35a2.59,2.59,0,0,1-1.15.22c-.36,0-.73,0-1.1,0h-.1a3,3,0,0,0-1.24.24,6.51,6.51,0,0,0,.11-2.83,8.89,8.89,0,0,0-1.1-2.17,5.9,5.9,0,0,0,0-2.64,14,14,0,0,1-.57-2.42,3.66,3.66,0,0,1,1.1-1.82c.52-.5.76-.67,1-.67a.86.86,0,0,1,.29.06,4.38,4.38,0,0,0,1.26.21,1.19,1.19,0,0,0,.5-.08c.38-.19.31-.72.52-1s.46-.21.53-.42-.06-.28,0-.35.11-.05.13-.2-.08-.38,0-.51.23-.1.34-.21.31,0,.5-.24,0-.53-.27-1a2.25,2.25,0,0,1-.3-1.14c0-.12.28-.21.31-.67s-.28-.77-.42-1.38a5.91,5.91,0,0,0-.38-1.71A4.09,4.09,0,0,0,179,56.8Z"/><path class="cls-2" d="M106,187.5a.42.42,0,0,1-.4.42c-12.17.39-16.13,2.59-16.17,2.62l-.07,0H89.1l-.06,0s-4.8-2.24-16.2-2.63a.42.42,0,0,1-.4-.42V163H69.67v27.74H86.8a.42.42,0,0,1,.4.29,1.94,1.94,0,0,0,3.75,0,.42.42,0,0,1,.4-.29h17.43V163H106Z"/><path class="cls-2" d="M73.27,187.1c9.18.35,14,1.85,15.53,2.45V165c-.93-.66-6-4-15.53-4.06Zm2.44-23.82c.31,0,7.63.66,11.32,3.18a.4.4,0,0,1-.45.66c-3.52-2.41-10.86-3-10.94-3a.4.4,0,0,1,.07-.8Zm0,3.34c.31,0,7.59.61,11.3,3a.4.4,0,0,1-.43.68C83,168,75.72,167.42,75.64,167.42a.4.4,0,0,1,.06-.8Zm0,3.34c.31,0,7.54.56,11.28,2.76a.4.4,0,1,1-.41.69c-3.57-2.1-10.85-2.64-10.93-2.65a.4.4,0,0,1-.37-.43A.41.41,0,0,1,75.7,170Zm0,3.34c.3,0,7.5.5,11.25,2.54a.4.4,0,0,1-.38.7c-3.59-2-10.85-2.44-10.92-2.45a.4.4,0,0,1,.05-.8Zm0,3.34c.3,0,7.46.45,11.23,2.33a.4.4,0,0,1-.18.76.4.4,0,0,1-.18,0c-3.62-1.8-10.84-2.24-10.92-2.24a.4.4,0,1,1,0-.8Zm0,3.34c.3,0,7.42.4,11.2,2.11a.4.4,0,1,1-.33.73c-3.64-1.65-10.84-2-10.91-2a.4.4,0,0,1,0-.8Zm0,3.34c.3,0,7.38.35,11.17,1.9a.4.4,0,1,1-.3.74c-3.67-1.5-10.84-1.84-10.91-1.84a.4.4,0,0,1-.38-.42A.4.4,0,0,1,75.69,183.31Z"/><path class="cls-3" d="M105.17,160.94a32.64,32.64,0,0,0-12,2.08,13.7,13.7,0,0,0-3.51,2v24.53c1.51-.63,5.94-2.07,15.53-2.42Zm-14.05,5.53c3.69-2.52,11-3.16,11.32-3.18a.4.4,0,0,1,.07.8c-.07,0-7.42.64-10.94,3a.4.4,0,0,1-.45-.66Zm0,3.12c3.71-2.36,11-2.95,11.3-3a.4.4,0,1,1,.06.8c-.07,0-7.39.59-10.93,2.85a.4.4,0,1,1-.43-.68Zm0,3.12c3.73-2.2,11-2.73,11.28-2.76a.41.41,0,0,1,.43.37.4.4,0,0,1-.37.43c-.07,0-7.36.54-10.93,2.65a.4.4,0,0,1-.41-.69Zm0,3.12c3.75-2,10.95-2.52,11.25-2.54a.4.4,0,1,1,.05.8c-.07,0-7.33.49-10.92,2.45a.4.4,0,1,1-.38-.7Zm0,3.12c3.76-1.87,10.92-2.31,11.23-2.33a.4.4,0,0,1,0,.8c-.07,0-7.3.44-10.92,2.24a.4.4,0,0,1-.18,0,.4.4,0,0,1-.18-.76Zm0,3.13c3.78-1.71,10.9-2.1,11.2-2.11a.39.39,0,0,1,.42.38.4.4,0,0,1-.38.42c-.07,0-7.27.39-10.91,2a.4.4,0,0,1-.33-.73Zm11.24,2c-.07,0-7.24.34-10.91,1.84a.4.4,0,1,1-.3-.74c3.8-1.55,10.87-1.89,11.17-1.9a.4.4,0,0,1,.42.38A.4.4,0,0,1,102.49,184.11Z"/><path class="cls-1" d="M109.19,162.17H106v-1.65a.42.42,0,0,0-.42-.42c-10.49,0-15.25,3.24-16.38,4.16-1.23-.88-6.51-4.16-16.35-4.16a.42.42,0,0,0-.42.42v1.65H69.25a.42.42,0,0,0-.42.42v28.57a.42.42,0,0,0,.42.42H86.52A2.9,2.9,0,0,0,89,193.31h.14a2.88,2.88,0,0,0,2.48-1.74h17.56a.42.42,0,0,0,.42-.42V162.59A.42.42,0,0,0,109.19,162.17ZM88.81,189.55c-1.58-.6-6.35-2.1-15.53-2.45V160.94c9.51.09,14.61,3.4,15.53,4.06ZM89.64,165a13.7,13.7,0,0,1,3.51-2,32.64,32.64,0,0,1,12-2.08V187.1c-9.6.34-14,1.78-15.53,2.42Zm19.14,25.76H91.35a.42.42,0,0,0-.4.29,1.94,1.94,0,0,1-3.75,0,.42.42,0,0,0-.4-.29H69.67V163h2.77V187.5a.42.42,0,0,0,.4.42c11.4.39,16.15,2.61,16.2,2.63l.06,0h.27l.07,0s4-2.22,16.17-2.62a.42.42,0,0,0,.4-.42V163h2.77Z"/><path class="cls-1" d="M75.64,164.08c.07,0,7.42.64,10.94,3a.4.4,0,1,0,.45-.66c-3.69-2.52-11-3.16-11.32-3.18a.4.4,0,0,0-.07.8Z"/><path class="cls-1" d="M75.64,167.42c.07,0,7.38.59,10.93,2.85a.4.4,0,0,0,.43-.68c-3.71-2.36-11-2.95-11.3-3a.4.4,0,0,0-.06.8Z"/><path class="cls-1" d="M75.65,170.76c.07,0,7.36.54,10.93,2.65a.4.4,0,0,0,.41-.69C83.25,170.51,76,170,75.7,170a.41.41,0,0,0-.43.37A.4.4,0,0,0,75.65,170.76Z"/><path class="cls-1" d="M75.65,174.1c.07,0,7.32.49,10.92,2.45a.4.4,0,1,0,.38-.7c-3.75-2-10.95-2.52-11.25-2.54a.4.4,0,0,0-.05.8Z"/><path class="cls-1" d="M75.65,177.44c.07,0,7.3.44,10.92,2.24a.4.4,0,0,0,.18,0,.4.4,0,0,0,.18-.76c-3.76-1.87-10.92-2.31-11.23-2.33a.4.4,0,1,0,0,.8Z"/><path class="cls-1" d="M75.65,180.77c.07,0,7.27.39,10.91,2a.4.4,0,1,0,.33-.73C83.11,180.37,76,180,75.7,180a.4.4,0,0,0,0,.8Z"/><path class="cls-1" d="M75.66,184.11c.07,0,7.24.34,10.91,1.84a.4.4,0,1,0,.3-.74c-3.8-1.55-10.87-1.89-11.17-1.9a.4.4,0,0,0-.42.38A.4.4,0,0,0,75.66,184.11Z"/><path class="cls-1" d="M91.35,167.2a.4.4,0,0,0,.23-.07c3.52-2.4,10.86-3,10.94-3a.4.4,0,0,0-.07-.8c-.31,0-7.63.66-11.32,3.18a.4.4,0,0,0,.23.73Z"/><path class="cls-1" d="M91.36,170.33a.4.4,0,0,0,.21-.06c3.54-2.25,10.86-2.84,10.93-2.85a.4.4,0,1,0-.06-.8c-.31,0-7.59.61-11.3,3a.4.4,0,0,0,.22.74Z"/><path class="cls-1" d="M91.38,173.46a.4.4,0,0,0,.2-.06c3.57-2.1,10.85-2.64,10.93-2.65a.4.4,0,0,0,.37-.43.41.41,0,0,0-.43-.37c-.31,0-7.54.56-11.28,2.76a.4.4,0,0,0,.2.75Z"/><path class="cls-1" d="M91.39,176.59a.4.4,0,0,0,.19,0c3.59-2,10.85-2.44,10.92-2.45a.4.4,0,1,0-.05-.8c-.3,0-7.5.5-11.25,2.54a.4.4,0,0,0,.19.75Z"/><path class="cls-1" d="M91.41,179.72a.4.4,0,0,0,.18,0c3.62-1.8,10.84-2.24,10.92-2.24a.4.4,0,0,0,0-.8c-.3,0-7.46.45-11.23,2.33a.4.4,0,0,0,.18.76Z"/><path class="cls-1" d="M91.42,182.85a.4.4,0,0,0,.16,0c3.64-1.65,10.84-2,10.91-2a.4.4,0,0,0,.38-.42.39.39,0,0,0-.42-.38c-.3,0-7.42.4-11.2,2.11a.4.4,0,0,0,.17.77Z"/><path class="cls-1" d="M102.46,183.31c-.3,0-7.38.35-11.17,1.9a.4.4,0,1,0,.3.74c3.67-1.5,10.84-1.84,10.91-1.84a.4.4,0,0,0,.38-.42A.4.4,0,0,0,102.46,183.31Z"/><path id="outer" class="cls-4" d="M75.66,9h96.88s23.6,27.22,62.95,42.34c0,0,26.56,147.19-111.14,210.2,0,0-122.45-37.3-115.56-210.71C8.78,50.8,47.14,38.2,75.66,9Z"/><path id="inner" class="cls-5" d="M80.06,20h87.88S189.35,44.77,225,58.54c0,0,24.09,134.05-100.81,191.44,0,0-111.07-34-104.83-191.9C19.39,58.08,54.19,46.61,80.06,20Z"/><path class="cls-1" d="M161.42,156.83a7.48,7.48,0,0,0-1.82-3,8.74,8.74,0,0,0-3.48-2.07,17.14,17.14,0,0,0-5.49-.75l-1,0-1.08.06v19.88a12.76,12.76,0,0,0,1.81.25q.77,0,1.61,0,5.19,0,7.61-2.84t2.42-7.89A12.28,12.28,0,0,0,161.42,156.83Z"/><path class="cls-1" d="M123.7,139.08v104s70.69-30.22,90.67-104Zm50.11,61q-1.56.42-2.88.67a11.89,11.89,0,0,1-2.06.25,4,4,0,0,1-2.17-.67,4.58,4.58,0,0,1-1.59-1.63l-11-22.76a7.08,7.08,0,0,1-.77,0h-.73a19.22,19.22,0,0,1-2-.1,16.76,16.76,0,0,1-2.07-.36v19.3q0,.5,1.25,1.23a14.3,14.3,0,0,0,4.05,1.32v3H133.64v-3a17,17,0,0,0,3.94-1.27q1.33-.69,1.33-1.27V152.09l-2.71.4q-1.33.19-2.55.4l-.5-3.84q4.07-1,8.85-1.73a64.81,64.81,0,0,1,10.32-.77,35.58,35.58,0,0,1,8.89,1,17.53,17.53,0,0,1,6,2.67,10.34,10.34,0,0,1,3.38,4,11.9,11.9,0,0,1,1.06,5,16.88,16.88,0,0,1-.79,5.28,15.76,15.76,0,0,1-2.19,4.34,15.13,15.13,0,0,1-3.38,3.38,17.86,17.86,0,0,1-4.36,2.32L173,192.73a10,10,0,0,0,1.17,1.42,3.77,3.77,0,0,0,1.23.81,4.75,4.75,0,0,0,1.58.31,16,16,0,0,0,2.21-.08l.58,3q-1.27.46-2.84.94T173.81,200.08Z"/><path class="cls-1" d="M81,25.87S56.76,48.82,24.83,61.56c0,0,2.57,58.64,10.3,77.51H123.7V25.87Zm14.77,95.61q-.65,3.32-1.07,4.83H50.23v-2.23a30,30,0,0,0,5.55-1.58q2-.86,2-1.58V66.36q0-.62-1.9-1.56a23.71,23.71,0,0,0-5.65-1.66V60.91H73.67v2.23a28.56,28.56,0,0,0-5.55,1.61q-2,.88-2,1.61v51.43a3,3,0,0,0,.44,1.63,3.39,3.39,0,0,0,1.54,1.19,11.09,11.09,0,0,0,3,.75,35.54,35.54,0,0,0,4.74.26h7.45a26.36,26.36,0,0,0,4-.26,6.58,6.58,0,0,0,2.89-1.17,8.42,8.42,0,0,0,2.27-2.67,30.53,30.53,0,0,0,2.11-4.83l2.24.93Q96.38,118.15,95.73,121.47Z"/><text class="cls-6" transform="translate(301.3 116.72)"><tspan xml:space="preserve"> Lemberg</tspan><tspan class="cls-7" x="473.53" y="0" xml:space="preserve"> </tspan><tspan class="cls-8"><tspan x="12.76" y="100.4">Recruitment</tspan><tspan class="cls-9" x="473.77" y="100.4"> </tspan></tspan></text><line class="cls-10" x1="270.46" x2="270.46" y2="269.45"/></g></g></svg>