<svg xmlns="http://www.w3.org/2000/svg" viewBox="0 0 1662.3 526.61"><defs><style>.cls-1,.cls-6{fill:#fff;}.cls-2,.cls-3,.cls-4,.cls-5{fill:none;}.cls-2,.cls-4,.cls-5{stroke:#fff;}.cls-2,.cls-4,.cls-5,.cls-8{stroke-miterlimit:10;}.cls-4{stroke-width:17px;}.cls-5{stroke-width:7px;}.cls-6{font-size:281px;font-family:GentiumBasic-Bold, Gentium Basic;font-weight:700;}.cls-7{font-size:179px;}.cls-8{fill:#f90808;stroke:#c12c27;stroke-width:13px;}</style></defs><title>theLogo</title><g id="Layer_2" data-name="Layer 2"><g id="newLogo"><path class="cls-1" d="M266.08,246.12a8.1,8.1,0,0,1-1-.06c-1.35-.17-3.32-1.77-4.61-3.1-.74-.77-1.48-2.11-1.3-6.25a25.59,25.59,0,0,0-.83-6.9,10.48,10.48,0,0,1-.37-2.22c.09-1.33.85-2.95,1.54-3.28a2.49,2.49,0,0,1,1.07-.2c.24,0,.46,0,.65,0l.39,0,.21,0c.16,0,1.38-.07,2.5-.07a8.81,8.81,0,0,1,1,0,.57.57,0,0,0,.25,0,1.86,1.86,0,0,0,.76-.21l.16-.08.07-.16a1,1,0,0,1,.13-.19l.45-.34a33.65,33.65,0,0,0,3.87-3.33,90.26,90.26,0,0,0,7.14-9.88c1.91-2.93,5.22-4.77,8.13-6.39.61-.34,1.2-.67,1.75-1,2.72-1.6,4.06-4.25,5.92-7.93.37-.73.76-1.51,1.19-2.32a19.3,19.3,0,0,1,4.75-5.93,13.56,13.56,0,0,0,1.76-1.78c.86-1.12,1.22-3.31,1.61-5.64a21.21,21.21,0,0,1,1.05-4.51c1-2.33,6.11-6.22,6.52-6.5a2.88,2.88,0,0,1,.61-.21l.1,0,.08-.06a7.46,7.46,0,0,0,2.19-2.88c.34-.85.86-2.84,1.52-5.36s1.48-5.68,2.38-8.63a103,103,0,0,1,4.07-10.88l.54-1.19-1.2.53s0,0,0,0h-.09a9.63,9.63,0,0,1-1.42-.15,11.25,11.25,0,0,1-2.37-.61l-.12-.05H317c-.25,0-.51.24-.86.72s-5.54,4.8-7,5.9a14.38,14.38,0,0,0-4,4.9,13.62,13.62,0,0,1-2,2.76,2.83,2.83,0,0,0-.82,1.24,6.24,6.24,0,0,0,0,1.66,11,11,0,0,1,0,1.73,6.44,6.44,0,0,1-.62,1.76,5.08,5.08,0,0,0-.64,2.11,2,2,0,0,0,.63,1.45h-.1a1.14,1.14,0,0,1-.28,0c-.33-.08-.62-.53-.71-.71v-.41h-.51c-.18,0-.39,0-1.8,1.53-.28.3-.63.74-1,1.2a19,19,0,0,1-1.55,1.78l.68-2.36-1.59,2s-.28.37-.47.59a.64.64,0,0,1-.21,0,.23.23,0,0,1-.11,0,.49.49,0,0,1,0-.35l.2-.52-.53-.15c-.08,0-.08-.16-.08-.2a9.47,9.47,0,0,1,.3-1.62l.1-.39-.36-.19s-.1-.09-.1-.11a9.85,9.85,0,0,1,.54-1.8,3.76,3.76,0,0,1,.34-.72,2.17,2.17,0,0,0,.22-.46,8.17,8.17,0,0,1,.4-.76,5.84,5.84,0,0,0,.63-1.31,2,2,0,0,1,.12-.36,4.31,4.31,0,0,0,.3-1,3,3,0,0,1,.41-1c.17-.31.37-.69.61-1.24a8.39,8.39,0,0,1,2-2.25,4.33,4.33,0,0,0,.86-.86c.15-.27.93-2,2.29-5,.71-1.55,1.47-3.24,2.14-4.7,1.53-3.33,5-6.46,6-7.34a2.19,2.19,0,0,0,.32-.36,3.23,3.23,0,0,1,1.31-1.1,5.11,5.11,0,0,1,2-.25,7.43,7.43,0,0,0,2.12-.22c.46-.14,1-.35,1.56-.54a12.29,12.29,0,0,1,2-.62l.27,0a13.37,13.37,0,0,0,1.74-.22l1.63-.25a26.31,26.31,0,0,1,3.4-.19c1,0,1.78,0,1.88,0h0a3.08,3.08,0,0,0,1.09-.33,8.47,8.47,0,0,1,1.87-.61h.27l.18-.23a22.82,22.82,0,0,0,1.65-3.1,6.33,6.33,0,0,0,.22-3.28,15.48,15.48,0,0,1-.12-1.69c0-.21,0-.44,0-.69,0-1.81-.09-4.56,1.6-6.14a8.75,8.75,0,0,1,6-2.27,7.5,7.5,0,0,1,6.92,4.06,5.2,5.2,0,0,1,.51,2,9.73,9.73,0,0,0,.19,1.23,7.18,7.18,0,0,0,.49,1.37,2.48,2.48,0,0,1,.33,1.18,1.11,1.11,0,0,1-.33.78,1,1,0,0,0-.26.43,4.61,4.61,0,0,0,.63,2.59l.07.12c.24.45.61,1.13.55,1.29a.66.66,0,0,1-.38.18,1.16,1.16,0,0,0-.59.29l-.15.06a.89.89,0,0,0-.63.56,1.61,1.61,0,0,0,0,.77,1.77,1.77,0,0,1,0,.32l-.12.12a.65.65,0,0,0-.09.68.18.18,0,0,1,0,.16.9.9,0,0,1-.21.13,2.18,2.18,0,0,0-.73.53,2.32,2.32,0,0,0-.42.93c-.12.43-.21.7-.44.82a1.77,1.77,0,0,1-.75.11,8.09,8.09,0,0,1-2.29-.38,2.18,2.18,0,0,0-.74-.15c-.71,0-1.32.47-2.33,1.46a7.65,7.65,0,0,0-2.29,3.87,9,9,0,0,0,.52,2.62c.17.62.37,1.37.6,2.27a10.62,10.62,0,0,1,0,4.71,2.22,2.22,0,0,0,0,.31c0,.2.08.33.37.75a12.73,12.73,0,0,1,1.8,3.61,12.27,12.27,0,0,1-.22,5.25l-.29,1.09,1-.52a5.62,5.62,0,0,1,2.2-.4h.19c.36,0,.71,0,1.07,0s.72,0,1.08,0a5.58,5.58,0,0,0,2.47-.49c1.48-.71,7.41-4.28,7.84-4.68.29-.26.43-.8.71-1.89a14.36,14.36,0,0,1,.67-2.16,6.49,6.49,0,0,1,1.23-1.68,5.79,5.79,0,0,0,.87-1.11,3.23,3.23,0,0,0,.46-1.83c0-.43.08-.52.08-.52s.18.23.13.93c0,.08,0,.14,0,.17v.21l.3.3h.21c.33,0,.37-.08.95-1.09a19,19,0,0,1,1.59-2.52,10.11,10.11,0,0,0,.74-1c.09-.13.2-.28.29-.39a2.61,2.61,0,0,1-.29.95c-.51,1.12-2.1,4.24-2.21,4.43a1.07,1.07,0,0,0-.12.82.86.86,0,0,0,.45.53l.11.05h.18c.51,0,1-.54,2-1.77l.17-.2a13.51,13.51,0,0,1,2.57-2.55s0,0,0,.08a.51.51,0,0,1,0,.49,32.42,32.42,0,0,1-2.55,3.11l.69.72s2.56-2.08,3-2.42l.18-.12.07.07a3,3,0,0,1-.61.88c-.31.38-1.21,1.24-2,2a10.86,10.86,0,0,0-1.61,1.66.63.63,0,0,0,0,.64l.15.24.35,0a1.47,1.47,0,0,0,.9-.46l.26-.24c.56-.51,1.74-1.57,2.17-1.87l.18-.11.06.08c0,.19-.5.79-.81,1.15a17,17,0,0,1-2,1.88c-.27.22-.48.4-.58.5a13.08,13.08,0,0,0-.91,1.09l-1,1.25a10.57,10.57,0,0,1-4.4,2.87c-1.16.32-1.92.85-4.75,3.68s-14.87,9.1-15.65,9.42a1,1,0,0,1-.32.09c-.24,0-.69-.55-1.51-1.54-1.43-1.74-2.95-4-3-4l-.35-.51-.43.45a13.4,13.4,0,0,0-2.53,4c-.84,2.15-2.26,4.89-2.28,4.91l-.24.46.46.22a33.73,33.73,0,0,0,5.67,1.87,52.58,52.58,0,0,1,13,5.92c4.7,2.78,6.69,6.63,6.74,7.21a10.65,10.65,0,0,1-2.22,5,26.23,26.23,0,0,1-3.78,3.56c-.63.52-1.29,1.06-2,1.65a68.74,68.74,0,0,1-8.4,6.08,29.32,29.32,0,0,0-7.4,7.32l-.37-.23-.21.45-.56.92.32.28.54.48c.07.07,0,.52-.13.88l-.08.35a8.2,8.2,0,0,0,.08,2.64c0,.21.06.39.06.5a5.55,5.55,0,0,0,2.12,3.33,23.65,23.65,0,0,1,2.85,3.09c.38.46.44.54.54.6a2.32,2.32,0,0,1,.39.65,1.18,1.18,0,0,0,.26.52,1.25,1.25,0,0,1,.17.27,2.06,2.06,0,0,1-1.07,1,2.93,2.93,0,0,1-1.19.19,10.89,10.89,0,0,1-3.89-.85,16.71,16.71,0,0,1-4.55-3.62c-.63-.62-1.23-1.21-1.82-1.73-1-.91-2.86-2.17-4.47-3.29a30.15,30.15,0,0,1-3-2.18,2.21,2.21,0,0,1-.12-2.33,4.44,4.44,0,0,1,1.52-1.2,5.83,5.83,0,0,0,.6-.37c.17-.13.55-.45,1-.83.63-.54,1.81-1.54,2.06-1.66h.08a.33.33,0,0,1,.15,0,.85.85,0,0,0,.35.09,2.13,2.13,0,0,0,1-.52h0l.13,0h.11c.13,0,.21,0,1.65-1.09l.12-.09.05-.14a1.36,1.36,0,0,0,.07-.29l.39-.31c.23-.18.53-.42.91-.74,1.17-1,5.33-5.63,5.37-5.67a12.54,12.54,0,0,0,1.78-2.7l.55-1c1.32-2.32,6.15-6.44,6.2-6.49l.5-.42-.54-.37c-.17-.11-.91-.49-3.49-.52-1,0-2,0-3.1-.08-1.67-.05-3.57-.11-5.68-.11h-1a17.74,17.74,0,0,1-5.69-1,3.6,3.6,0,0,0-.94-.24h-.1l-.14,0a71.92,71.92,0,0,0-9.37,8.27,84,84,0,0,1-10.38,8.63L299,205.61a13.52,13.52,0,0,0-2,1.84c-.41.44-1,1-2.27,2.23a18.25,18.25,0,0,1-4.8,2.84,20.91,20.91,0,0,0-5.49,3.29,71.67,71.67,0,0,1-8.52,6.64,13.91,13.91,0,0,0-4.07,5.16,10.58,10.58,0,0,1-.59,1,6.09,6.09,0,0,1-1,1,3,3,0,0,0-.68.72,16.39,16.39,0,0,0-.78,2.19l0,.13,0,.13a4.65,4.65,0,0,0,.28.67c0,.08,0,.12-.19.51-.09.15-.19.32-.29.53a5.15,5.15,0,0,1-.8,1.05,5.93,5.93,0,0,0-.65.81c-.45.74-.62,4-.53,4.62a9.38,9.38,0,0,0,1.47,3.36c.44.49.44.49.21,1C268.13,245.77,267.39,246.12,266.08,246.12Z"/><path class="cls-1" d="M341.33,112.49a7,7,0,0,1,6.47,3.79,4.72,4.72,0,0,1,.46,1.83,10.36,10.36,0,0,0,.2,1.29,7.76,7.76,0,0,0,.52,1.46,2.11,2.11,0,0,1,.28.94.64.64,0,0,1-.21.48,1.5,1.5,0,0,0-.37.63,5.06,5.06,0,0,0,.67,3l.07.13c.13.24.3.55.4.77a1.6,1.6,0,0,0-.67.33h0a1.39,1.39,0,0,0-.95.88,2.05,2.05,0,0,0,0,1v.05a1.07,1.07,0,0,0-.23.89,2.52,2.52,0,0,0-.78.59,2.74,2.74,0,0,0-.52,1.13,2.1,2.1,0,0,1-.18.5,1.57,1.57,0,0,1-.53.06,7.63,7.63,0,0,1-2.12-.35,2.65,2.65,0,0,0-.91-.18c-.88,0-1.57.52-2.68,1.6a8,8,0,0,0-2.44,4.18,9.05,9.05,0,0,0,.54,2.8c.17.62.37,1.36.59,2.25a10.14,10.14,0,0,1,0,4.49,2,2,0,0,0-.06.41,1.79,1.79,0,0,0,.45,1,12.29,12.29,0,0,1,1.73,3.47,11.77,11.77,0,0,1-.22,5l-.55,2.1,2-.95a5.24,5.24,0,0,1,2-.35h.18c.35,0,.7,0,1,0s.74,0,1.1,0a6.05,6.05,0,0,0,2.68-.54c1.41-.68,7.44-4.28,8-4.76s.55-.95.86-2.14a14,14,0,0,1,.64-2.08,6,6,0,0,1,1.14-1.55,6.17,6.17,0,0,0,.94-1.21c.09-.17.17-.33.23-.47h.49a.9.9,0,0,0,.54-.15,1.54,1.54,0,0,0-.08,1,1.36,1.36,0,0,0,.71.84,1.13,1.13,0,0,0,.51.12c.66,0,1.19-.51,2-1.5l1,1.08c-1.25,1.2-1.43,1.39-1.55,1.64a1.13,1.13,0,0,0,0,1.12,1.06,1.06,0,0,0,.79.5l-.09.08a13.47,13.47,0,0,0-.94,1.13l-1,1.25a10.11,10.11,0,0,1-4.15,2.7c-1.25.35-2.06.89-5,3.81-2.73,2.74-14.71,9-15.48,9.31l-.08,0a13.86,13.86,0,0,1-1.17-1.34l0-.06c-1.36-1.66-2.87-3.89-2.89-3.91l-.69-1-.86.89a13.94,13.94,0,0,0-2.63,4.16c-.83,2.13-2.24,4.84-2.25,4.86l-.48.91.93.45a34.2,34.2,0,0,0,5.76,1.91,52.1,52.1,0,0,1,12.86,5.87c4.56,2.7,6.34,6.26,6.49,6.82a10.44,10.44,0,0,1-2.1,4.62,25.82,25.82,0,0,1-3.72,3.49c-.63.52-1.29,1.06-2,1.66a68.31,68.31,0,0,1-8.34,6,29.72,29.72,0,0,0-7.25,7l-.34-.21-.53.87-.34.55-.44.73.65.55.37.33c0,.14-.08.35-.12.53l-.09.36a8.52,8.52,0,0,0,.07,2.82c0,.2.05.36.06.47a6,6,0,0,0,2.31,3.69,23.41,23.41,0,0,1,2.77,3,4.32,4.32,0,0,0,.57.65,1.89,1.89,0,0,1,.27.42,1.66,1.66,0,0,0,.33.68,2.38,2.38,0,0,1-.7.52,2.3,2.3,0,0,1-1,.14,10.36,10.36,0,0,1-3.7-.81,16.4,16.4,0,0,1-4.39-3.52c-.64-.63-1.24-1.22-1.84-1.75-1.06-.93-2.9-2.2-4.52-3.32-1.16-.8-2.61-1.81-2.84-2.06a1.71,1.71,0,0,1-.11-1.75,4,4,0,0,1,1.36-1.05,6.14,6.14,0,0,0,.66-.41c.18-.14.51-.41,1-.85s1.45-1.23,1.84-1.51a1.24,1.24,0,0,0,.46.09h.12a2.41,2.41,0,0,0,1-.47h.23c.25,0,.32-.05,1.86-1.17l.24-.18.11-.28a1.67,1.67,0,0,0,.06-.2l.24-.19c.23-.18.54-.42.93-.75,1.21-1,5.38-5.68,5.42-5.72a13,13,0,0,0,1.84-2.78l.55-1c1.06-1.86,4.76-5.22,6.09-6.35l1-.85-1.08-.74c-.31-.21-1.21-.57-3.77-.6-1,0-2,0-3.09-.08-1.68-.05-3.57-.11-5.69-.11h-1a17.29,17.29,0,0,1-5.53-1,3.76,3.76,0,0,0-1.09-.26,1.13,1.13,0,0,0-.42.08,69.84,69.84,0,0,0-9.55,8.4A83.82,83.82,0,0,1,300.41,204l-1.67,1.25a13.91,13.91,0,0,0-2.11,1.89c-.43.46-1,1-2.25,2.21a17.88,17.88,0,0,1-4.68,2.76,21.3,21.3,0,0,0-5.62,3.37,71.32,71.32,0,0,1-8.47,6.59,14.34,14.34,0,0,0-4.23,5.34,11,11,0,0,1-.55,1,5.69,5.69,0,0,1-.93,1,3.4,3.4,0,0,0-.78.85,16.18,16.18,0,0,0-.83,2.3l-.08.26.07.26a3.67,3.67,0,0,0,.24.62l-.1.18c-.09.16-.2.34-.31.56a4.85,4.85,0,0,1-.72.94,6.33,6.33,0,0,0-.71.89c-.56.91-.68,4.36-.6,5a10,10,0,0,0,1.59,3.62l.22.26c0,.05,0,.13-.09.24a2.75,2.75,0,0,1-1.74.38,7.67,7.67,0,0,1-.93-.06c-1.14-.14-3-1.58-4.31-3-.63-.65-1.33-1.91-1.16-5.88a26,26,0,0,0-.84-7,10.81,10.81,0,0,1-.36-2.08,4.36,4.36,0,0,1,1.25-2.86,2,2,0,0,1,.86-.15c.23,0,.43,0,.61,0l.43,0,.28,0c.2,0,1.37-.06,2.44-.06.58,0,.82,0,.91,0a1.31,1.31,0,0,0,.36,0,2.33,2.33,0,0,0,1-.27l.3-.14.14-.32,0-.05.4-.3a34,34,0,0,0,3.93-3.38,90.87,90.87,0,0,0,7.19-10c1.84-2.83,5.09-4.63,8-6.23.62-.34,1.21-.67,1.76-1,2.85-1.67,4.29-4.53,6.12-8.14.37-.73.76-1.5,1.19-2.31a18.86,18.86,0,0,1,4.64-5.79,14.17,14.17,0,0,0,1.83-1.85c.93-1.22,1.31-3.47,1.71-5.86a21,21,0,0,1,1-4.39c.92-2,5.6-5.77,6.32-6.27a2.74,2.74,0,0,1,.47-.15l.2,0,.17-.13a8,8,0,0,0,2.35-3.09c.36-.88.86-2.78,1.54-5.42s1.48-5.67,2.38-8.61a103,103,0,0,1,4-10.82l1.08-2.39-2.27,1h-.05a9.13,9.13,0,0,1-1.34-.14,10.83,10.83,0,0,1-2.25-.58l-.24-.1-.26,0c-.41,0-.76.31-1.19.9s-5.55,4.79-6.9,5.83a14.81,14.81,0,0,0-4.12,5,13.19,13.19,0,0,1-2,2.67,3.26,3.26,0,0,0-.94,1.46,6.72,6.72,0,0,0,0,1.8,10.47,10.47,0,0,1,0,1.64,6.19,6.19,0,0,1-.58,1.6,6.18,6.18,0,0,0-.68,2.12h-.47c-.36,0-.61,0-2.17,1.69-.3.32-.65.76-1,1.22l-.06.08.78-2.72-2.92,3.76-.55-.15a11.7,11.7,0,0,1,.27-1.29l.21-.78-.49-.26a13.62,13.62,0,0,1,.46-1.41,3.31,3.31,0,0,1,.3-.64,2.62,2.62,0,0,0,.26-.55c0-.1.24-.45.36-.68a5.87,5.87,0,0,0,.68-1.45,1.91,1.91,0,0,1,.1-.27,4.85,4.85,0,0,0,.33-1.15,2.63,2.63,0,0,1,.36-.85c.17-.32.38-.71.63-1.27a8.12,8.12,0,0,1,1.9-2.07,4.46,4.46,0,0,0,1-1c.16-.28.8-1.67,2.32-5,.7-1.55,1.47-3.23,2.13-4.68,1.53-3.33,5.14-6.56,5.88-7.2a2.58,2.58,0,0,0,.35-.4,2.73,2.73,0,0,1,1.13-.95,4.85,4.85,0,0,1,1.76-.2,7.81,7.81,0,0,0,2.26-.24c.48-.15,1-.35,1.58-.55a17.67,17.67,0,0,1,1.76-.59l.29,0a13.25,13.25,0,0,0,1.82-.22l1.62-.25a25.83,25.83,0,0,1,3.32-.18c.95,0,1.7,0,1.8,0h.15a3.48,3.48,0,0,0,1.22-.37,10.23,10.23,0,0,1,1.67-.58l.57,0,.31-.48a23.37,23.37,0,0,0,1.69-3.17,6.82,6.82,0,0,0,.25-3.53,15.1,15.1,0,0,1-.12-1.64c0-.22,0-.45,0-.7,0-1.83-.08-4.34,1.44-5.77a8.24,8.24,0,0,1,5.62-2.14m0-1a9.27,9.27,0,0,0-6.3,2.41c-2.08,2-1.75,5.36-1.75,7.2s.55,3.31-.06,4.78a22.55,22.55,0,0,1-1.61,3h0a21.34,21.34,0,0,0-2.9,1h0c-.1,0-.91-.05-1.94-.05a26.59,26.59,0,0,0-3.47.19c-1.77.25-2.78.46-3.3.46h-.27a31.78,31.78,0,0,0-3.66,1.18c-1.29.4-3,0-4.14.49a4.56,4.56,0,0,0-1.72,1.5c-.25.21-4.38,3.74-6.13,7.54s-4.17,9.19-4.41,9.62-2.33,1.84-2.91,3.16a11.66,11.66,0,0,0-1.06,2.38,10.64,10.64,0,0,1-.41,1.38c-.08.38-.89,1.64-1,2s-.26.38-.55,1.16a10.3,10.3,0,0,0-.57,1.92.68.68,0,0,0,.37.61,10.31,10.31,0,0,0-.32,1.74.66.66,0,0,0,.44.69,1,1,0,0,0,.05.84.6.6,0,0,0,.51.22.83.83,0,0,0,.6-.22c.19-.23.48-.61.48-.61a.5.5,0,0,0,.35.64h0c.54,0,2.17-2.31,3-3.27a8.38,8.38,0,0,1,1.43-1.37h0a1.94,1.94,0,0,0,1.09,1.1,1.64,1.64,0,0,0,.4.05c.49,0,.87-.23.78-.48s-.77-.51-.81-1.5,1.13-2.57,1.26-3.8-.17-2.57,0-3.33,1.3-1.23,2.8-3.86a13.93,13.93,0,0,1,3.86-4.75c1.32-1,6.71-5.5,7.08-6s.51-.52.51-.52a11.54,11.54,0,0,0,2.48.64,10.06,10.06,0,0,0,1.49.15,1,1,0,0,0,.33,0,103.09,103.09,0,0,0-4.09,10.94c-1.78,5.82-3.22,12.29-3.89,13.94a7,7,0,0,1-2,2.67,3.38,3.38,0,0,0-.77.28c-.25.15-5.58,4.2-6.71,6.71s-1.19,8.21-2.6,10.05-4,3-6.56,7.78-3.8,8.21-6.93,10.05-7.66,3.86-10.05,7.54a86.87,86.87,0,0,1-7.08,9.81,43,43,0,0,1-4.34,3.69,1.51,1.51,0,0,0-.2.31,1.48,1.48,0,0,1-.53.16l-.12,0a7.18,7.18,0,0,0-1.16,0c-1,0-2.39,0-2.6.08h-.12c-.22,0-.61-.05-1-.05a3,3,0,0,0-1.29.25c-.93.44-1.73,2.31-1.82,3.69s1.38,4.9,1.2,9.13.58,5.73,1.44,6.62,3.16,3,4.9,3.25a8.68,8.68,0,0,0,1.05.07c1.31,0,2.39-.33,2.65-1,.34-.83.21-1-.31-1.56a9.15,9.15,0,0,1-1.35-3.1,14.31,14.31,0,0,1,.46-4.29,21.67,21.67,0,0,0,1.47-1.9c.37-.74.7-1,.49-1.47a4.39,4.39,0,0,1-.25-.58,17.94,17.94,0,0,1,.74-2.08c.25-.43,1-.8,1.65-1.72s2-4.35,4.54-6.07a72.28,72.28,0,0,0,8.58-6.68c3.19-2.88,7.42-3.49,10.3-6.13s2.15-2.39,4.29-4,8.49-6.07,12.11-9.93a76.1,76.1,0,0,1,9.19-8.15h.05a22.94,22.94,0,0,0,6.62,1.23h1c3.49,0,6.34.16,8.77.19,2.64,0,3.22.43,3.22.43s-4.93,4.2-6.31,6.62a17.36,17.36,0,0,1-2.27,3.59c-.77.86-4.29,4.77-5.32,5.62s-1.47,1.12-1.47,1.27a.88.88,0,0,1,0,.28s-1.35,1-1.44,1h-.23a.42.42,0,0,0-.29.1,1.81,1.81,0,0,1-.67.38h0c-.1,0-.26-.13-.5-.13a.72.72,0,0,0-.27.06c-.41.17-2.67,2.18-3.16,2.54a7.46,7.46,0,0,0-2.24,1.69,2.68,2.68,0,0,0,.12,2.91c.49.67,5.52,3.8,7.51,5.55s4.24,4.5,6.51,5.44a11.27,11.27,0,0,0,4.08.89,3.3,3.3,0,0,0,1.42-.25c.9-.46,1.52-1.21,1.29-1.65s-.31-.34-.4-.69A2.41,2.41,0,0,0,336,224a33.05,33.05,0,0,0-3.34-3.66,5.14,5.14,0,0,1-1.93-3,11.22,11.22,0,0,1-.15-3c.21-.92.4-1.41.06-1.72l-.55-.49.34-.55a.43.43,0,0,0,.21.06.39.39,0,0,0,.34-.24,28.6,28.6,0,0,1,7.26-7.2,68.7,68.7,0,0,0,8.46-6.13c2.15-1.9,4.14-3.25,5.79-5.27a11,11,0,0,0,2.33-5.3c0-.67-2.11-4.75-7-7.63a53.7,53.7,0,0,0-13.12-6,33.46,33.46,0,0,1-5.58-1.84s1.44-2.76,2.3-5a13,13,0,0,1,2.42-3.83s1.53,2.27,2.94,4c1.08,1.31,1.46,1.78,1.94,1.78a1.37,1.37,0,0,0,.51-.13c.83-.34,12.93-6.65,15.81-9.53s3.56-3.28,4.54-3.55a11.1,11.1,0,0,0,4.66-3c1.26-1.56,1.56-2,1.87-2.3a27.55,27.55,0,0,0,2.65-2.41c.84-1,1.1-1.35.84-1.75-.15-.22-.25-.34-.41-.34a1,1,0,0,0-.52.24c-.54.37-2,1.75-2.48,2.15a1.13,1.13,0,0,1-.57.33c-.08,0-.1-.06,0-.18.14-.28,2.91-2.79,3.56-3.57s.89-1.23.58-1.55c-.16-.16-.27-.25-.4-.25a1,1,0,0,0-.51.25c-.48.35-3,2.44-3,2.44a36,36,0,0,0,2.62-3.22c.31-.63,0-1.29-.52-1.29h0c-.51,0-2.21,1.9-2.88,2.73s-1.42,1.79-1.77,1.79h-.06a.44.44,0,0,1-.12-.64c.09-.15,1.72-3.34,2.24-4.47s.37-1.65-.06-1.75h-.07c-.39,0-.68.76-1.43,1.6s-2.07,3.44-2.17,3.44h0c0-.21.18-1.41-.43-1.56l-.2,0c-.44,0-.56.46-.56.92a2.82,2.82,0,0,1-.4,1.69c-.43.8-1.53,1.53-2.11,2.82s-.89,3.56-1.26,3.89-6.25,3.89-7.72,4.6a5.05,5.05,0,0,1-2.25.44c-.7,0-1.42-.07-2.15-.07h-.2a5.92,5.92,0,0,0-2.42.46,12.71,12.71,0,0,0,.21-5.52,17.35,17.35,0,0,0-2.15-4.23,11.51,11.51,0,0,0,0-5.15c-.67-2.7-1.16-4-1.1-4.72a7.15,7.15,0,0,1,2.15-3.55c1-1,1.49-1.32,2-1.32a1.67,1.67,0,0,1,.57.12,8.55,8.55,0,0,0,2.46.41,2.32,2.32,0,0,0,1-.16c.74-.37.61-1.41,1-1.87s.9-.41,1-.83-.12-.55,0-.67.21-.11.25-.4-.15-.75-.08-1,.44-.2.66-.41.61-.09,1-.47,0-1-.54-2a4.38,4.38,0,0,1-.58-2.22c.06-.23.55-.41.61-1.3s-.55-1.5-.83-2.7-.09-2.05-.74-3.34a8,8,0,0,0-7.36-4.34Z"/><path class="cls-2" d="M198.84,366.63a.81.81,0,0,1-.79.81c-23.76.76-31.49,5.06-31.57,5.11l-.13.05-.06,0-.18,0h0l-.2,0h0l-.11,0c-.09,0-9.38-4.37-31.62-5.14a.81.81,0,0,1-.78-.81V318.81h-5.41V373h33.46a.81.81,0,0,1,.77.56,4.16,4.16,0,0,0,3.67,2.84c2.72,0,3.64-2.8,3.65-2.83a.81.81,0,0,1,.77-.56h34V318.81h-5.41Z"/><path class="cls-2" d="M134.94,365.85c17.92.69,27.24,3.61,30.32,4.78V322.72c-1.81-1.29-11.76-7.75-30.32-7.93Zm4.76-46.49c.6.05,14.89,1.29,22.1,6.22a.78.78,0,0,1-.88,1.29c-6.88-4.7-21.21-5.94-21.35-6a.78.78,0,0,1,.13-1.56Zm0,6.52c.6,0,14.81,1.19,22.06,5.8a.78.78,0,0,1-.84,1.32c-6.92-4.4-21.2-5.55-21.34-5.56a.78.78,0,0,1,.12-1.56Zm0,6.52c.6,0,14.73,1.09,22,5.38a.78.78,0,1,1-.79,1.35c-7-4.11-21.18-5.16-21.33-5.17a.78.78,0,0,1-.72-.84A.8.8,0,0,1,139.69,332.39Zm0,6.52c.59,0,14.65,1,22,5a.78.78,0,0,1-.75,1.37c-7-3.81-21.17-4.76-21.32-4.77a.78.78,0,0,1,.1-1.56Zm0,6.52c.59,0,14.56.88,21.91,4.54a.78.78,0,0,1-.35,1.48.77.77,0,0,1-.35-.08c-7.06-3.52-21.17-4.37-21.31-4.38a.78.78,0,1,1,.09-1.56Zm0,6.52c.59,0,14.48.78,21.86,4.12a.78.78,0,1,1-.65,1.42c-7.11-3.22-21.16-4-21.3-4a.78.78,0,1,1,.08-1.56Zm0,6.52c.58,0,14.4.68,21.81,3.71a.78.78,0,1,1-.59,1.45c-7.16-2.93-21.15-3.59-21.29-3.59a.78.78,0,0,1-.75-.82A.77.77,0,0,1,139.67,358.46Z"/><path class="cls-3" d="M197.21,314.78c-11.37.1-19,2.25-23.47,4.06a26.74,26.74,0,0,0-6.85,3.84v47.89c2.94-1.24,11.59-4,30.32-4.72Zm-27.43,10.79c7.21-4.93,21.5-6.17,22.1-6.22a.78.78,0,0,1,.13,1.56c-.14,0-14.48,1.26-21.35,6a.78.78,0,0,1-.88-1.29Zm.05,6.1c7.25-4.61,21.46-5.75,22.06-5.8a.78.78,0,0,1,.12,1.56c-.14,0-14.42,1.16-21.34,5.56a.78.78,0,1,1-.84-1.32Zm.05,6.1c7.28-4.29,21.41-5.34,22-5.38a.8.8,0,0,1,.83.72.78.78,0,0,1-.72.84c-.14,0-14.36,1.06-21.33,5.17a.78.78,0,0,1-.79-1.35Zm.05,6.1c7.32-4,21.37-4.92,22-5a.78.78,0,1,1,.1,1.56c-.14,0-14.3,1-21.32,4.77a.78.78,0,0,1-.75-1.37ZM170,350c7.35-3.66,21.32-4.51,21.91-4.54A.78.78,0,0,1,192,347c-.14,0-14.25.86-21.31,4.38a.77.77,0,0,1-.35.08A.78.78,0,0,1,170,350Zm.06,6.1c7.38-3.34,21.28-4.09,21.86-4.12a.77.77,0,0,1,.82.74.78.78,0,0,1-.74.82c-.14,0-14.19.77-21.3,4a.78.78,0,0,1-.65-1.42ZM192,360c-.14,0-14.13.67-21.29,3.59a.78.78,0,0,1-.59-1.45c7.41-3,21.23-3.68,21.81-3.71a.77.77,0,0,1,.82.75A.78.78,0,0,1,192,360Z"/><path class="cls-1" d="M205.07,317.19h-6.23V314a.81.81,0,0,0-.81-.81c-20.48,0-29.77,6.33-32,8.12-2.41-1.71-12.7-8.12-31.91-8.12a.81.81,0,0,0-.81.81v3.23h-6.23a.81.81,0,0,0-.81.81v55.77a.81.81,0,0,0,.81.81h33.72a5.66,5.66,0,0,0,4.85,3.39h.27a5.63,5.63,0,0,0,4.84-3.39h34.29a.81.81,0,0,0,.81-.81V318A.81.81,0,0,0,205.07,317.19Zm-39.8,53.44c-3.08-1.17-12.4-4.09-30.32-4.78V314.78c18.56.18,28.52,6.64,30.32,7.93Zm1.62-48a26.74,26.74,0,0,1,6.85-3.84c4.45-1.81,12.1-4,23.47-4.06v51.07c-18.74.67-27.38,3.48-30.32,4.72ZM204.25,373h-34a.81.81,0,0,0-.77.56s-.93,2.8-3.65,2.83a4.16,4.16,0,0,1-3.67-2.84.81.81,0,0,0-.77-.56H127.91V318.81h5.41v47.82a.81.81,0,0,0,.78.81c22.25.77,31.53,5.09,31.62,5.14l.11,0h0l.2,0h0l.18,0,.06,0,.13-.05c.08,0,7.8-4.34,31.57-5.11a.81.81,0,0,0,.79-.81V318.81h5.41Z"/><path class="cls-1" d="M139.57,320.91c.14,0,14.48,1.25,21.35,6a.78.78,0,1,0,.88-1.29c-7.21-4.93-21.5-6.17-22.1-6.22a.78.78,0,0,0-.13,1.56Z"/><path class="cls-1" d="M139.57,327.43c.14,0,14.42,1.16,21.34,5.56a.78.78,0,0,0,.84-1.32c-7.25-4.61-21.46-5.75-22.06-5.8a.78.78,0,0,0-.12,1.56Z"/><path class="cls-1" d="M139.58,334c.14,0,14.36,1.06,21.33,5.17a.78.78,0,0,0,.79-1.35c-7.28-4.29-21.41-5.34-22-5.38a.8.8,0,0,0-.83.72A.78.78,0,0,0,139.58,334Z"/><path class="cls-1" d="M139.58,340.47c.14,0,14.3,1,21.32,4.77a.78.78,0,0,0,.75-1.37c-7.32-4-21.37-4.92-22-5a.78.78,0,0,0-.1,1.56Z"/><path class="cls-1" d="M139.59,347c.14,0,14.25.86,21.31,4.38a.77.77,0,0,0,.35.08.78.78,0,0,0,.35-1.48c-7.35-3.66-21.32-4.51-21.91-4.54a.78.78,0,1,0-.09,1.56Z"/><path class="cls-1" d="M139.59,353.51c.14,0,14.19.76,21.3,4a.78.78,0,1,0,.65-1.42c-7.38-3.34-21.28-4.09-21.86-4.12a.78.78,0,1,0-.08,1.56Z"/><path class="cls-1" d="M139.6,360c.14,0,14.13.67,21.29,3.59a.78.78,0,1,0,.59-1.45c-7.41-3-21.23-3.68-21.81-3.71a.77.77,0,0,0-.82.75A.78.78,0,0,0,139.6,360Z"/><path class="cls-1" d="M170.23,327a.78.78,0,0,0,.44-.14c6.87-4.69,21.21-5.94,21.35-6a.78.78,0,0,0-.13-1.56c-.6.05-14.89,1.29-22.1,6.22a.78.78,0,0,0,.44,1.43Z"/><path class="cls-1" d="M170.26,333.11a.78.78,0,0,0,.42-.12c6.92-4.4,21.19-5.55,21.34-5.56a.78.78,0,0,0-.12-1.56c-.6,0-14.81,1.19-22.06,5.8a.78.78,0,0,0,.42,1.44Z"/><path class="cls-1" d="M170.29,339.23a.78.78,0,0,0,.4-.11c7-4.11,21.18-5.16,21.33-5.17a.78.78,0,0,0,.72-.84.8.8,0,0,0-.83-.72c-.6,0-14.73,1.09-22,5.38a.78.78,0,0,0,.4,1.46Z"/><path class="cls-1" d="M170.31,345.34a.78.78,0,0,0,.37-.09c7-3.81,21.17-4.76,21.32-4.77a.78.78,0,1,0-.1-1.56c-.59,0-14.65,1-22,5a.78.78,0,0,0,.37,1.47Z"/><path class="cls-1" d="M170.34,351.45a.77.77,0,0,0,.35-.08c7.06-3.52,21.17-4.37,21.31-4.38a.78.78,0,0,0-.09-1.56c-.59,0-14.56.88-21.91,4.54a.78.78,0,0,0,.35,1.48Z"/><path class="cls-1" d="M170.37,357.56a.78.78,0,0,0,.32-.07c7.11-3.22,21.16-4,21.3-4a.78.78,0,0,0,.74-.82.77.77,0,0,0-.82-.74c-.59,0-14.48.78-21.86,4.12a.78.78,0,0,0,.32,1.49Z"/><path class="cls-1" d="M191.92,358.46c-.58,0-14.4.68-21.81,3.71a.78.78,0,1,0,.59,1.45c7.16-2.93,21.15-3.59,21.29-3.59a.78.78,0,0,0,.75-.82A.77.77,0,0,0,191.92,358.46Z"/><path id="outer" class="cls-4" d="M139.6,18.11H328.72S374.8,71.25,451.6,100.77c0,0,51.84,287.34-217,410.35,0,0-239-72.82-225.6-411.33C9,99.79,83.93,75.18,139.6,18.11Z"/><path id="inner" class="cls-5" d="M148.19,39.61H319.74s41.8,48.4,111.46,75.28c0,0,47,261.69-196.8,373.72,0,0-216.83-66.32-204.64-374.61C29.77,114,97.69,91.59,148.19,39.61Z"/><path class="cls-1" d="M307,306.76a14.6,14.6,0,0,0-3.56-6,17.06,17.06,0,0,0-6.79-4,33.46,33.46,0,0,0-10.72-1.47q-1,0-2,0t-2.1.12v38.81a24.92,24.92,0,0,0,3.53.49q1.5.08,3.15.08,10.13,0,14.85-5.54t4.72-15.41A24,24,0,0,0,307,306.76Z"/><path class="cls-1" d="M233.38,272.11v203s138-59,177-203ZM331.2,391.19q-3,.82-5.62,1.3a23.2,23.2,0,0,1-4,.49,7.84,7.84,0,0,1-4.24-1.3,8.94,8.94,0,0,1-3.11-3.18l-21.52-44.44a13.81,13.81,0,0,1-1.5.08h-1.42a37.52,37.52,0,0,1-3.9-.2,32.73,32.73,0,0,1-4-.69v37.67q0,1,2.44,2.41a27.91,27.91,0,0,0,7.91,2.57v6H252.79v-6a33.13,33.13,0,0,0,7.69-2.49q2.59-1.34,2.59-2.49V297.51l-5.29.77q-2.59.37-5,.77l-1-7.5q7.95-1.87,17.29-3.38a126.52,126.52,0,0,1,20.14-1.51,69.45,69.45,0,0,1,17.36,1.88,34.23,34.23,0,0,1,11.7,5.22,20.18,20.18,0,0,1,6.6,7.87,23.23,23.23,0,0,1,2.06,9.74,33,33,0,0,1-1.54,10.31,30.77,30.77,0,0,1-4.27,8.48,29.53,29.53,0,0,1-6.6,6.6,34.86,34.86,0,0,1-8.51,4.52l23.62,35.55a19.5,19.5,0,0,0,2.29,2.77,7.35,7.35,0,0,0,2.4,1.59,9.27,9.27,0,0,0,3.08.61,31.17,31.17,0,0,0,4.31-.16l1.13,6q-2.48.9-5.55,1.83T331.2,391.19Z"/><path class="cls-1" d="M150,51.11S102.7,95.9,40.38,120.79c0,0,5,114.48,20.1,151.32h172.9v-221Zm28.83,186.64q-1.27,6.48-2.08,9.42H90v-4.36a58.64,58.64,0,0,0,10.83-3.09q3.91-1.67,3.92-3.09V130.16q0-1.22-3.71-3a46.29,46.29,0,0,0-11-3.24v-4.36h45.76v4.36A55.76,55.76,0,0,0,124.9,127q-3.92,1.72-3.91,3.14V230.55a5.83,5.83,0,0,0,.86,3.19,6.63,6.63,0,0,0,3,2.33,21.65,21.65,0,0,0,5.8,1.47,69.37,69.37,0,0,0,9.25.51h14.54a51.45,51.45,0,0,0,7.88-.51,12.85,12.85,0,0,0,5.64-2.28,16.44,16.44,0,0,0,4.42-5.22,59.59,59.59,0,0,0,4.12-9.42l4.37,1.82Q180.06,231.26,178.79,237.74Z"/></g><g id="lembergRecruit"><text class="cls-6" transform="translate(589.2 226.94)">Lemberg<tspan class="cls-7"><tspan x="44.25" y="196">Recruitment</tspan></tspan></text><line class="cls-8" x1="519.88" y1="0.61" x2="519.88" y2="526.61"/></g></g></svg>